<?xml version="1.0" encoding="UTF-8"?>
<svg width="116px" height="90px" viewBox="0 0 116 90" version="1.1" xmlns="http://www.w3.org/2000/svg" xmlns:xlink="http://www.w3.org/1999/xlink">
    <!-- Generator: Sketch 52.2 (67145) - http://www.bohemiancoding.com/sketch -->
    <title>表情</title>
    <desc>Created with Sketch.</desc>
    <g id="商城-花加社区" stroke="none" stroke-width="1" fill="none" fill-rule="evenodd">
        <g id="29-异常页面-无帖子" transform="translate(-316.000000, -399.000000)" fill="#C3C5C6" fill-rule="nonzero">
            <g id="表情" transform="translate(316.000000, 399.000000)">
                <path d="M28.6610716,44.2056465 C28.1391721,43.0809427 28.6760097,41.7666301 29.8598534,41.2699476 C31.0446307,40.77419 32.4282714,41.2847463 32.9511045,42.4085252 C33.3463758,43.2568154 33.8741271,44.0380921 34.5149359,44.7236021 C36.2850996,46.6215398 38.8133715,47.7258953 41.5358385,47.7258953 C44.2751109,47.7258953 46.8173873,46.6067411 48.5894182,44.6875302 C49.2132653,44.0135395 49.7284602,43.2482685 50.116838,42.4186993 C50.6406048,41.2939955 52.0242454,40.7852891 53.2080892,41.2828965 C54.3928665,41.7805039 54.9278369,43.0957414 54.40407,44.2204452 C53.822098,45.4643313 53.0502806,46.6120369 52.1157413,47.6232291 C49.4604957,50.4978831 45.6382117,52.1793893 41.5349049,52.1793893 C37.4577398,52.1793893 33.6569293,50.5191563 31.0054182,47.6768745 C30.0447136,46.6490187 29.253556,45.4775672 28.6610716,44.2056465 Z M29.2550508,31.6924805 C27.1926607,31.6924805 25.5205281,30.2431295 25.5205282,28.4552574 C25.5205282,26.6673853 27.1926607,25.2180344 29.2550508,25.2180344 C31.3174409,25.2180344 32.9895735,26.6673853 32.9895735,28.4552574 C32.9895735,30.2431295 31.317441,31.6924805 29.2550508,31.6924805 Z M54.4163974,31.6924805 C52.3540073,31.6924805 50.6818747,30.2431295 50.6818747,28.4552574 C50.6818747,26.6673853 52.3540072,25.2180344 54.4163974,25.2180344 C56.4787876,25.2180344 58.1509201,26.6673853 58.1509201,28.4552574 C58.1509201,30.2431295 56.4787876,31.6924805 54.4163974,31.6924805 Z M15.4199631,56.610687 C14.0329782,56.610687 12.9233903,55.7862595 12.6459933,54.5496183 C11.9525008,51.389313 11.6751038,48.2290076 11.6751038,45.0687023 C11.6751038,20.1984733 32.063782,-3.55271368e-15 57.0295105,-3.55271368e-15 C78.2503796,-3.55271368e-15 96.419882,14.2900763 101.413028,34.6259542 C101.690425,36.1374046 100.858234,37.5114504 99.3325503,37.9236641 C97.8068669,38.1984733 96.419882,37.3740458 96.0037865,35.8625954 C91.7041333,18 75.7538068,5.49618321 57.168209,5.49618321 C35.1151489,5.49618321 17.2230435,23.221374 17.2230435,45.0687023 C17.2230435,47.8167939 17.5004405,50.5648855 18.0552344,53.3129771 C18.4713299,54.8244275 17.5004405,56.3358779 15.9747571,56.610687 L15.4199631,56.610687 Z M115.421575,31.8778626 C116.531163,36.9618321 111.260621,42.1832061 102.383917,46.9923664 C101.413028,71.1755725 81.4404449,90 57.0295105,90 C39.6921991,90 23.7418726,80.1068702 16.1134556,64.5801527 C7.23675212,63.480916 1.13401851,60.870229 0.163129073,56.1984733 C-0.669061874,52.6259542 1.68881248,48.778626 7.09805363,44.7938931 C8.34634005,43.8320611 10.1494204,44.1068702 10.9816114,45.3435115 C11.9525008,46.5801527 11.6751038,48.3664122 10.4268174,49.1908397 C6.54325967,52.0763359 5.43367174,54.1374046 5.57237023,55.0992366 C5.84976721,56.3358779 9.45592798,58.9465649 21.2452997,59.4961832 C31.9250836,60.0458015 45.7949327,58.5343511 60.2195758,55.5114504 C74.6442188,52.4885496 87.959274,48.2290076 97.5294699,43.4198473 C108.070555,38.1984733 110.289731,34.351145 110.012334,33.1145038 C109.734937,32.1526718 108.070555,30.778626 103.9096,29.8167939 C102.383917,29.5419847 101.413028,28.0305344 101.829123,26.519084 C102.10652,25.0076336 103.632204,24.0458015 105.157887,24.4580153 C111.260621,25.8320611 114.728083,28.3053435 115.421575,31.8778626 Z M57.0295105,84.5038168 C77.5568872,84.5038168 94.2007061,69.5267176 96.697279,49.740458 C86.8496861,54.1374046 74.2281234,57.9847328 61.4678622,60.7328244 C48.8462995,63.480916 36.0860383,64.9923664 25.4062545,64.9923664 L22.6322846,64.9923664 C29.8446062,76.9465649 42.8822644,84.5038168 57.0295105,84.5038168 Z" id="形状"></path>
            </g>
        </g>
        <g id="页面"></g>
        <g id="页面"></g>
    </g>
</svg>