<?xml version="1.0" encoding="UTF-8"?>
<svg width="96px" height="100px" viewBox="0 0 96 100" version="1.1" xmlns="http://www.w3.org/2000/svg" xmlns:xlink="http://www.w3.org/1999/xlink">
    <!-- Generator: Sketch 52.2 (67145) - http://www.bohemiancoding.com/sketch -->
    <title>空页面,空内容</title>
    <desc>Created with Sketch.</desc>
    <g id="商城-花加社区" stroke="none" stroke-width="1" fill="none" fill-rule="evenodd">
        <g id="28-异常页面-没有发帖" transform="translate(-326.000000, -712.000000)" fill="#C3C5C6" fill-rule="nonzero">
            <g id="空页面,空内容" transform="translate(326.000000, 712.000000)">
                <path d="M42.4660965,82.5335599 L42.4660965,82.4033524 L42.4660965,82.5335599 Z M94.1221327,43.7410148 L75.9598439,26.8419368 C75.3739637,26.2467023 74.5183924,25.9862872 73.672121,25.9862872 L21.6217725,25.9862872 C20.775501,25.9862872 19.9850276,26.3118061 19.3991472,26.8419368 L1.10666284,43.7410148 C0.390586923,44.401353 0,45.2570026 0,46.2521601 L0,92.4107608 C0,96.5681014 3.32928799,100 7.51414721,100 L87.7239481,100 C91.8344098,100 95.2380952,96.5681014 95.2380952,92.4107608 L95.2380952,46.2521601 C95.2287956,45.3221063 94.7731109,44.401353 94.1221327,43.7410148 Z M61.3314362,43.4805997 C60.1596756,43.4805997 59.1739088,44.4664567 59.1739088,45.7220295 C59.1739088,51.9254885 53.9474846,57.1430905 47.7445934,57.1430905 C41.5417022,57.1430905 36.3152781,51.9254885 36.315278,45.7220295 C36.315278,44.5315605 35.3388108,43.4805998 34.1577506,43.4805997 L8.6859077,43.4805997 L22.2727506,30.9341736 L73.0862406,30.9341736 L86.5428878,43.4805997 L61.3314362,43.4805997 Z M90.1976649,47.9634591 L90.1976649,93.5919364 C90.1976649,95.0428203 89.0910021,96.1030818 87.7146484,96.1030818 L7.51414721,96.1030818 C6.07269573,96.1030818 4.90093514,94.9777166 4.90093514,93.5919364 L4.90093514,47.9634591 L32.0746207,47.9634591 C32.5954033,51.3953578 34.2321482,54.6319451 36.8453601,57.0779867 C39.849159,59.9797546 43.6992295,61.5050429 47.7538931,61.5050429 C51.799257,61.5050429 55.6586271,59.9239514 58.662426,57.0779867 C61.2105402,54.5668413 62.912383,51.4046584 63.4331655,47.9634591 L90.1976649,47.9634591 Z M22.8958296,18.9271787 L14.6098084,10.9752184 C13.7263381,10.1195689 13.6891394,8.70588704 14.5354109,7.80373488 C15.3816824,6.91088323 16.7859352,6.87368103 17.6694054,7.72933058 L25.9461269,15.6812909 C26.8388969,16.5369404 26.8667959,17.9506222 26.0298242,18.8527744 C25.1835527,19.745626 23.7885996,19.7828282 22.8958296,18.9271787 Z M45.7265613,15.4115752 C45.2987757,15.0023515 45.0569839,14.4350186 45.0383845,13.8490848 L44.7407945,2.30711677 C44.7128954,1.06084464 45.6800629,0.0377854869 46.8983219,0.00058329197 C48.1258806,-0.0273183077 49.1395465,0.949238238 49.1767453,2.18620978 L49.4650356,13.7281778 C49.4836349,14.63033 48.9721521,15.4673784 48.1537796,15.8300995 C47.3447068,16.202121 46.3868391,16.0347113 45.7265613,15.4115752 Z M66.5299613,16.946164 C66.5113619,16.3509295 66.7345544,15.7742962 67.1344409,15.3464715 L75.0019762,6.96668642 C75.8482477,6.07383477 77.2525004,6.03663258 78.1359707,6.89228213 C79.019441,7.74793168 79.0566397,9.1616135 78.2103682,10.0637657 L70.342833,18.4435507 C69.9336467,18.8713755 69.3756655,19.12249 68.7897852,19.1410911 C68.2132046,19.1410911 67.6459237,18.9271787 67.2181381,18.517955 C66.7903525,18.1087313 66.539261,17.5413985 66.5299613,16.946164 Z" id="形状"></path>
                <g id="笑脸" transform="translate(32.000000, 64.000000)">
                    <path d="M6.66889747,21.7635565 C6.59103555,20.9353732 6.94895544,20.1170932 7.96275897,20.1170932 C8.9765625,20.1170932 9.55127738,20.1307966 10,21.4519084 C10.1861622,22 10.1861622,25.6194345 16.9359693,25.6194345 C23.7145842,25.6194345 23.967478,21.6268152 24.1103516,21.4519084 C24.4658203,21.0167411 24.9020996,20.1170932 25.9274015,20.1283852 C27.2039668,20.1170932 27.2811345,20.9429818 27.2039668,21.7628319 C27.1960418,21.8366226 26.4092083,29 16.936085,29 C7.46215194,29 6.67531847,21.8350526 6.66889747,21.7635565 Z M28.4122555,7.24393129 C28.2312585,5.81799479 27.7557264,3.27612305 26.2176011,3.27612305 C24.6905702,3.27612305 24.095856,5.82934721 23.9560033,7.24393129 C23.8737781,8.07211452 22.9066235,8.89045497 22.0095332,8.88369183 C21.1124429,8.87692868 20.5022186,8.0713899 20.5836197,7.24393129 C20.8491875,4.55322644 22.3343768,7.10542736e-15 26.216777,7.10542736e-15 C30.0739454,7.10542736e-15 31.660252,4.532152 31.9890261,7.20933056 C32.0910311,8.03521916 31.4705064,8.78278813 30.602672,8.87994794 C30.5402265,8.8874961 30.4785417,8.89045497 30.4169203,8.89045497 C29.2558798,8.89045497 28.5070966,8.00961583 28.4122555,7.24393129 Z M9.27247943,7.56240292 C9.09148335,6.13646642 8.17851503,3.50244141 6.64039703,3.50244141 C5.11413412,3.50244141 5.11413412,5.95239258 4.37248934,7.56240292 C4.01230521,8.34431389 3.44779801,8.89051536 2.43317327,8.88447683 C1.41854853,8.87843831 0.925105059,8.07217491 1.0072665,7.24471629 C1.27207233,4.55401145 2.75719112,0.000785007808 6.64039703,0.000785007808 C10.496723,0.000785007808 12.0830854,4.53293701 12.411858,7.21011556 C12.5130383,8.03600416 11.8925799,8.78357314 11.0255105,8.88073295 C10.9630652,8.8874961 10.90062,8.89051536 10.8397597,8.89051536 C9.3673201,8.89051536 9.3673201,8.32736283 9.27247943,7.56240292 Z" id="形状"></path>
                </g>
            </g>
        </g>
        <g id="页面"></g>
        <g id="页面"></g>
    </g>
</svg>