<?xml version="1.0" encoding="UTF-8"?>
<svg width="96px" height="100px" viewBox="0 0 96 100" version="1.1" xmlns="http://www.w3.org/2000/svg" xmlns:xlink="http://www.w3.org/1999/xlink">
    <!-- Generator: Sketch 52.2 (67145) - http://www.bohemiancoding.com/sketch -->
    <title>空页面,空内容</title>
    <desc>Created with Sketch.</desc>
    <g id="商城-花加社区" stroke="none" stroke-width="1" fill="none" fill-rule="evenodd">
        <g id="28-异常页面-没有收藏" transform="translate(-326.000000, -712.000000)" fill="#C3C5C6">
            <g id="空页面,空内容" transform="translate(326.000000, 712.000000)">
                <path d="M42.4660965,82.5335599 L42.4660965,82.4033524 L42.4660965,82.5335599 Z M94.1221327,43.7410148 L75.9598439,26.8419368 C75.3739637,26.2467023 74.5183924,25.9862872 73.672121,25.9862872 L21.6217725,25.9862872 C20.775501,25.9862872 19.9850276,26.3118061 19.3991472,26.8419368 L1.10666284,43.7410148 C0.390586923,44.401353 0,45.2570026 0,46.2521601 L0,92.4107608 C0,96.5681014 3.32928799,100 7.51414721,100 L87.7239481,100 C91.8344098,100 95.2380952,96.5681014 95.2380952,92.4107608 L95.2380952,46.2521601 C95.2287956,45.3221063 94.7731109,44.401353 94.1221327,43.7410148 Z M61.3314362,43.4805997 C60.1596756,43.4805997 59.1739088,44.4664567 59.1739088,45.7220295 C59.1739088,51.9254885 53.9474846,57.1430905 47.7445934,57.1430905 C41.5417022,57.1430905 36.3152781,51.9254885 36.315278,45.7220295 C36.315278,44.5315605 35.3388108,43.4805998 34.1577506,43.4805997 L8.6859077,43.4805997 L22.2727506,30.9341736 L73.0862406,30.9341736 L86.5428878,43.4805997 L61.3314362,43.4805997 Z M90.1976649,47.9634591 L90.1976649,93.5919364 C90.1976649,95.0428203 89.0910021,96.1030818 87.7146484,96.1030818 L7.51414721,96.1030818 C6.07269573,96.1030818 4.90093514,94.9777166 4.90093514,93.5919364 L4.90093514,47.9634591 L32.0746207,47.9634591 C32.5954033,51.3953578 34.2321482,54.6319451 36.8453601,57.0779867 C39.849159,59.9797546 43.6992295,61.5050429 47.7538931,61.5050429 C51.799257,61.5050429 55.6586271,59.9239514 58.662426,57.0779867 C61.2105402,54.5668413 62.912383,51.4046584 63.4331655,47.9634591 L90.1976649,47.9634591 Z M22.8958296,18.9271787 L14.6098084,10.9752184 C13.7263381,10.1195689 13.6891394,8.70588704 14.5354109,7.80373488 C15.3816824,6.91088323 16.7859352,6.87368103 17.6694054,7.72933058 L25.9461269,15.6812909 C26.8388969,16.5369404 26.8667959,17.9506222 26.0298242,18.8527744 C25.1835527,19.745626 23.7885996,19.7828282 22.8958296,18.9271787 Z M45.7265613,15.4115752 C45.2987757,15.0023515 45.0569839,14.4350186 45.0383845,13.8490848 L44.7407945,2.30711677 C44.7128954,1.06084464 45.6800629,0.0377854869 46.8983219,0.00058329197 C48.1258806,-0.0273183077 49.1395465,0.949238238 49.1767453,2.18620978 L49.4650356,13.7281778 C49.4836349,14.63033 48.9721521,15.4673784 48.1537796,15.8300995 C47.3447068,16.202121 46.3868391,16.0347113 45.7265613,15.4115752 Z M66.5299613,16.946164 C66.5113619,16.3509295 66.7345544,15.7742962 67.1344409,15.3464715 L75.0019762,6.96668642 C75.8482477,6.07383477 77.2525004,6.03663258 78.1359707,6.89228213 C79.019441,7.74793168 79.0566397,9.1616135 78.2103682,10.0637657 L70.342833,18.4435507 C69.9336467,18.8713755 69.3756655,19.12249 68.7897852,19.1410911 C68.2132046,19.1410911 67.6459237,18.9271787 67.2181381,18.517955 C66.7903525,18.1087313 66.539261,17.5413985 66.5299613,16.946164 Z" id="形状" fill-rule="nonzero"></path>
                <g id="表情-(2)" transform="translate(26.886845, 62.397693)">
                    <path d="M3.31179796,10.2213542 C3.31179796,12.1937997 4.910781,13.7927827 6.88322653,13.7927827 C8.85567207,13.7927827 10.4546551,12.1937997 10.4546551,10.2213542 C10.4546551,8.24890863 8.85567207,6.6499256 6.88322653,6.6499256 C4.910781,6.6499256 3.31179796,8.24890863 3.31179796,10.2213542 Z" id="路径"></path>
                    <path d="M29.5022742,10.2213542 C29.5022742,12.1937997 31.1012572,13.7927827 33.0737027,13.7927827 C35.0461483,13.7927827 36.6451313,12.1937997 36.6451313,10.2213542 C36.6451313,8.24890863 35.0461483,6.6499256 33.0737027,6.6499256 C31.1012572,6.6499256 29.5022742,8.24890863 29.5022742,10.2213542 Z" id="路径"></path>
                    <path d="M12.4976222,1.44419254 C12.2294772,0.84593583 11.4711518,0.545879447 10.8039815,0.773860402 L1.74699379,3.86691572 C1.07982349,4.09458734 0.756701685,4.76399148 1.02555603,5.36162953 L1.26851808,5.9032777 C1.53666306,6.50153441 2.29498849,6.80159079 2.96215879,6.57360984 L12.0191465,3.48055452 C12.6863168,3.2528829 13.0094386,2.58347876 12.7412936,1.98522204 L12.4976222,1.44419254 Z" id="路径"></path>
                    <path d="M39.3524799,3.65711325 L30.2346461,0.759724349 C29.5634376,0.546700427 28.8290401,0.898667303 28.5955915,1.54597032 L28.3839081,2.13170381 C28.1497574,2.77900683 28.5046695,3.47701416 29.175878,3.69003809 L38.2937117,6.58742699 C38.9649202,6.80110941 39.6986157,6.44914253 39.9327663,5.80183951 L40.1444497,5.21577677 C40.3786004,4.56847376 40.0236884,3.87079567 39.3524799,3.65711325 Z" id="路径"></path>
                    <path d="M28.0363538,23.1000773 C27.67495,22.6026767 26.9680817,22.4692919 26.4576812,22.8024254 L19.5262137,27.3263399 C19.0154667,27.659802 18.8945368,28.3326399 19.255594,28.8306976 L19.5826938,29.2807893 C19.9440976,29.7785184 20.6509659,29.9115747 21.1613664,29.5784412 L28.0928339,25.0548552 C28.6035809,24.7213931 28.7245109,24.0478982 28.3634536,23.5504976 L28.0363538,23.1000773 Z" id="路径"></path>
                </g>
            </g>
        </g>
        <g id="页面"></g>
        <g id="页面"></g>
    </g>
</svg>