<?xml version="1.0" encoding="UTF-8"?>
<svg width="21px" height="21px" viewBox="0 0 21 21" version="1.1" xmlns="http://www.w3.org/2000/svg" xmlns:xlink="http://www.w3.org/1999/xlink">
    <!-- Generator: Sketch 52.2 (67145) - http://www.bohemiancoding.com/sketch -->
    <title>形状</title>
    <desc>Created with Sketch.</desc>
    <g id="商城-花加社区" stroke="none" stroke-width="1" fill="none" fill-rule="evenodd">
        <g id="18-我" transform="translate(-605.000000, -243.000000)" fill="#FFFFFF" fill-rule="nonzero">
            <g id="编辑" transform="translate(579.000000, 227.000000)">
                <path d="M46.5960502,21.1892951 L41.7128058,16.396657 C41.175539,15.867781 40.2998626,15.867781 39.7612354,16.396657 L27.5554639,28.3754282 C27.0977235,29.5428636 26.2754976,34.5435107 26,36.4301654 C26.2069376,36.6337631 26.3208058,36.885761 26.5797921,37 C28.3983445,36.7289761 33.7256008,35.318386 34.3915774,35.0825284 L46.5960296,23.1052413 C47.1346568,22.5751079 47.1346568,21.7166044 46.5960296,21.1893363 L46.5960502,21.1892951 Z M28.0433617,35.5615407 L27.5554846,35.0825284 L27.9749459,32.6187832 L30.3458746,34.9463362 L28.0433617,35.5615407 Z M33.4145039,34.1232051 L31.8809313,34.5362342 L28.2545456,30.9768085 L28.5327642,29.3334116 L38.2962435,19.7507945 L39.2734201,20.7087986 L29.9978179,29.8124239 L30.9736134,30.7702837 L40.2492156,21.6668232 L41.2250111,22.6247242 L33.9024841,29.8124033 L34.87964,30.7702631 L42.2023113,23.5841712 L43.1781481,24.5421752 L33.4146482,34.1231639 L33.4145039,34.1232051 Z M44.1551391,23.5842124 L39.2734201,18.792976 L40.7370721,17.354661 L45.6188324,22.1472991 L44.1551391,23.5842124 Z" id="形状"></path>
            </g>
        </g>
        <g id="页面"></g>
        <g id="页面"></g>
    </g>
</svg>