<?xml version="1.0" encoding="UTF-8"?>
<svg width="12px" height="18px" viewBox="0 0 12 18" version="1.1" xmlns="http://www.w3.org/2000/svg" xmlns:xlink="http://www.w3.org/1999/xlink">
    <!-- Generator: Sketch 55.1 (78136) - https://sketchapp.com -->
    <title>箭头</title>
    <desc>Created with Sketch.</desc>
    <g id="会员体系" stroke="none" stroke-width="1" fill="none" fill-rule="evenodd">
        <g id="会员中心" transform="translate(-682.000000, -1131.000000)" fill="#231815" fill-rule="nonzero">
            <path d="M696.572436,1135.36864 L695.7061,1134.45202 C695.405883,1134.1507 695.055245,1134 694.654996,1134 C694.246492,1134 693.900022,1134.1507 693.61502,1134.45202 L688.00004,1140.39116 L682.385101,1134.45219 C682.10014,1134.15087 681.753589,1134.00017 681.345247,1134.00017 C680.944795,1134.00017 680.594239,1134.15087 680.293981,1134.45219 L679.439016,1135.36882 C679.146285,1135.67822 679,1136.04901 679,1136.48083 C679,1136.92069 679.146446,1137.28728 679.438975,1137.58051 L686.960145,1145.5357 C687.23754,1145.84515 687.583969,1146 688,1146 C688.408221,1146 688.758737,1145.84519 689.051185,1145.5357 L696.572396,1137.58051 C696.857398,1137.27902 697,1136.91247 697,1136.48083 C697,1136.05705 696.857438,1135.68648 696.572436,1135.36864 Z" id="箭头" transform="translate(688.000000, 1140.000000) scale(-1, 1) rotate(90.000000) translate(-688.000000, -1140.000000) "></path>
        </g>
    </g>
</svg>