<?xml version="1.0" encoding="UTF-8"?>
<svg width="52px" height="52px" viewBox="0 0 52 52" version="1.1" xmlns="http://www.w3.org/2000/svg" xmlns:xlink="http://www.w3.org/1999/xlink">
    <!-- Generator: Sketch 55.1 (78136) - https://sketchapp.com -->
    <title>下单购物</title>
    <desc>Created with Sketch.</desc>
    <g id="下单购物" stroke="none" stroke-width="1" fill="none" fill-rule="evenodd">
        <path d="M15.4000581,33.3122503 L39.1168673,33.3122503 C41.8061288,33.3122503 44,31.1205765 44,28.4340086 L44,18.4654275 C44,18.4565902 44,18.4389154 44,18.430078 C44,18.4035658 44,18.385891 44,18.3593788 C44,18.341704 44,18.3240292 43.9911537,18.3063544 C43.9911537,18.2886797 43.9823075,18.2621675 43.9823075,18.2444927 C43.9823075,18.2268179 43.9734612,18.2091431 43.9734612,18.1914683 C43.964615,18.1737935 43.964615,18.1561187 43.9557687,18.1296066 C43.9469225,18.1119318 43.9469225,18.094257 43.9380762,18.0765822 C43.92923,18.0589074 43.92923,18.0412326 43.9203837,18.0235578 C43.9115375,18.005883 43.9026912,17.9882082 43.8938449,17.9616961 C43.8849987,17.9440213 43.8761524,17.9263465 43.8673062,17.9175091 C43.8584599,17.8998343 43.8496137,17.8821595 43.8407674,17.8644847 C43.8319212,17.8468099 43.8230749,17.8379725 43.8142286,17.8202977 C43.8053824,17.802623 43.7876899,17.7849482 43.7788436,17.7672734 C43.7699974,17.7495986 43.7611511,17.7407612 43.7434586,17.7230864 C43.7346124,17.7054116 43.7169198,17.6965742 43.7080736,17.6788994 C43.6992273,17.6612246 43.6815348,17.6523873 43.6726886,17.6347125 C43.6638423,17.6170377 43.6461498,17.6082003 43.6373036,17.5993629 C43.619611,17.5816881 43.6107648,17.5728507 43.5930723,17.5551759 C43.5753798,17.5463385 43.5665335,17.5286637 43.548841,17.5198263 C43.5311485,17.5109889 43.513456,17.4933142 43.4957635,17.4844768 C43.478071,17.4756394 43.4692247,17.466802 43.4515322,17.4579646 C43.4338397,17.4491272 43.4161472,17.4402898 43.3984547,17.422615 C43.3807622,17.4137776 43.3630697,17.4049402 43.3453771,17.3961028 C43.3276846,17.3872654 43.3099921,17.378428 43.2922996,17.3695906 C43.2746071,17.3607532 43.2569146,17.3519158 43.2392221,17.3430784 C43.2215296,17.3342411 43.2038371,17.3342411 43.1861446,17.3254037 C43.168452,17.3165663 43.1419133,17.3077289 43.1242208,17.3077289 C43.1065283,17.3077289 43.0888357,17.2988915 43.0799895,17.2988915 C43.0534507,17.2900541 43.0357582,17.2900541 43.0092195,17.2900541 C43.0003732,17.2900541 42.9915269,17.2812167 42.9738344,17.2812167 L12.9142604,13.1364787 L12.9142604,8.94755366 C12.9142604,8.90336669 12.9142604,8.85917972 12.9054142,8.82383014 C12.9054142,8.81499274 12.9054142,8.80615535 12.8965679,8.78848056 C12.8965679,8.76196838 12.8877217,8.73545619 12.8877217,8.70894401 C12.8788754,8.68243182 12.8788754,8.66475704 12.8700292,8.63824485 C12.8700292,8.62057006 12.8611829,8.61173267 12.8611829,8.59405788 C12.8523367,8.5675457 12.8434904,8.54103351 12.8346441,8.51452133 C12.8346441,8.50568393 12.8257979,8.48800915 12.8257979,8.47917175 C12.8169516,8.45265957 12.8081054,8.43498478 12.7904129,8.4084726 C12.7815666,8.3996352 12.7815666,8.38196041 12.7727204,8.37312302 C12.7638741,8.35544823 12.7550279,8.33777344 12.7373353,8.32009865 C12.7284891,8.30242386 12.7196428,8.29358647 12.7107966,8.27591168 C12.7019503,8.25823689 12.6931041,8.24939949 12.6842578,8.2317247 C12.6754116,8.21404992 12.657719,8.19637513 12.6488728,8.17870034 C12.6400265,8.16986294 12.6311803,8.16102555 12.622334,8.15218815 C12.6046415,8.13451337 12.586949,8.11683858 12.5692565,8.09916379 C12.5604102,8.09032639 12.551564,8.081489 12.5427177,8.0726516 C12.5250252,8.05497681 12.5073327,8.03730203 12.480794,8.01962724 C12.4719477,8.01078984 12.4542552,8.00195245 12.4454089,7.99311505 C12.4277164,7.97544026 12.4100239,7.96660287 12.3923314,7.94892808 C12.3657926,7.93125329 12.3392539,7.9135785 12.3215614,7.90474111 C12.3127151,7.89590371 12.3038689,7.89590371 12.2950226,7.88706632 C12.2596376,7.86939153 12.2154063,7.85171674 12.1800213,7.83404195 L5.66033146,5.09444965 C5.04993987,4.83816521 4.35108574,5.12096184 4.09454435,5.73074206 C3.83800296,6.34052228 4.12108311,7.03867645 4.7314747,7.29496089 L10.5169254,9.73408177 L10.5169254,15.1425672 L10.5169254,15.9997945 L10.5169254,22.574816 L10.5169254,28.4516833 L10.5169254,35.8750947 C10.5169254,38.3495652 12.3746389,40.3998407 14.771974,40.7091495 C14.3385075,41.4338159 14.0819661,42.2822058 14.0819661,43.18362 C14.0819661,45.8436757 16.2492985,48 18.903175,48 C21.5570514,48 23.7243839,45.8348383 23.7243839,43.18362 C23.7243839,42.2998805 23.485535,41.4603281 23.0609148,40.7533365 L33.8002682,40.7533365 C33.3756479,41.4691655 33.136799,42.2998805 33.136799,43.18362 C33.136799,45.8436757 35.3041315,48 37.9580079,48 C40.6118844,48 42.7792168,45.8348383 42.7792168,43.18362 C42.7792168,40.5324016 40.6118844,38.36724 37.9580079,38.36724 L15.4000581,38.36724 C14.0200423,38.36724 12.9054142,37.2448909 12.9054142,35.8750947 L12.9054142,32.6406083 C13.6308071,33.0648033 14.4888938,33.3122503 15.4000581,33.3122503 Z M21.3447413,43.1747826 C21.3447413,44.5180666 20.2478057,45.6050661 18.9120212,45.6050661 C17.5762367,45.6050661 16.4793011,44.5092292 16.4793011,43.1747826 C16.4793011,41.840336 17.5762367,40.7444991 18.9120212,40.7444991 C20.2478057,40.7444991 21.3447413,41.8314986 21.3447413,43.1747826 Z M40.3995743,43.1747826 C40.3995743,44.5180666 39.3026387,45.6050661 37.9668542,45.6050661 C36.6310697,45.6050661 35.5341341,44.5092292 35.5341341,43.1747826 C35.5341341,41.840336 36.6310697,40.7444991 37.9668542,40.7444991 C39.3026387,40.7444991 40.3995743,41.8314986 40.3995743,43.1747826 Z M39.1168673,30.9261538 L15.4000581,30.9261538 C14.0200423,30.9261538 12.9054142,29.8038047 12.9054142,28.4340086 L12.9054142,22.5571412 L12.9054142,15.9821197 L12.9054142,15.54025 L41.6115112,19.4905653 L41.6115112,28.4251712 C41.6115112,29.8126421 40.4880368,30.9261538 39.1168673,30.9261538 Z" id="形状" fill="#333333" fill-rule="nonzero"></path>
        <rect id="矩形" fill-opacity="0" fill="#D8D8D8" x="0" y="0" width="52" height="52"></rect>
    </g>
</svg>