<?xml version="1.0" encoding="UTF-8"?>
<svg width="52px" height="52px" viewBox="0 0 52 52" version="1.1" xmlns="http://www.w3.org/2000/svg" xmlns:xlink="http://www.w3.org/1999/xlink">
    <!-- Generator: Sketch 55.1 (78136) - https://sketchapp.com -->
    <title>大师</title>
    <desc>Created with Sketch.</desc>
    <g id="大师" stroke="none" stroke-width="1" fill="none" fill-rule="evenodd">
        <rect id="矩形" fill-opacity="0" fill="#D8D8D8" x="0" y="0" width="52" height="52"></rect>
        <g id="flower-(8)" transform="translate(5.000000, 7.000000)" fill="#333333" fill-rule="nonzero" stroke="#333333" stroke-width="0.3">
            <path d="M40.713,7.73964912 C39.95025,6.70889474 38.66775,6.13705263 37.05975,6.07159649 C37.2825,3.16635088 36.27,0.908473684 34.36725,0.212192982 C32.835,-0.348859649 31.0035,0.217947368 29.35575,1.71768421 C28.60875,1.08110526 27.75,0.717140351 26.8305,0.717140351 C23.88675,0.717140351 21.5805,4.35031579 21.5805,8.98907018 C21.5805,12.4323509 22.878,15.3807544 24.7995,16.6222632 C23.15325,18.2363684 22.76925,21.8666667 22.692,26.7204912 C21.801,25.3941053 20.6295,24.3942807 19.09575,23.9727719 C20.139,22.2716316 20.5215,19.7051754 20.00775,16.9639298 C19.15125,12.3978246 16.212,9.21924561 13.31475,9.71268421 C12.40875,9.86877193 11.631,10.373 11.013,11.1268246 C9.1155,9.93063158 7.2075,9.68247368 5.80275,10.4952807 C4.06275,11.5015789 3.49275,13.891807 4.24125,16.7064211 C2.71275,17.0358596 1.524,17.8026316 0.94575,18.9808421 C-0.39675,21.7184912 2.1285,25.4768246 6.6945,27.537614 C8.49975,28.3525789 10.389,28.7841579 12.1065,28.7841579 C12.4005,28.7841579 12.6885,28.7712105 12.9705,28.7460351 C15.04725,28.5582982 16.56075,27.7008947 17.2335,26.3313509 C17.352,26.0896667 17.43,25.8379123 17.48925,25.5825614 C17.67375,25.4789825 17.85,25.3610175 18.018,25.2265088 C23.541,25.9235088 23.98425,36.3123333 23.98425,39.5736316 C23.98425,39.9706842 24.3195,40.2929298 24.73425,40.2929298 C25.149,40.2929298 25.48425,39.9706842 25.48425,39.5736316 C25.48425,37.1575088 25.2795,33.1150526 24.12675,29.7206842 C24.15,29.6509123 24.1725,29.5804211 24.1725,29.5034561 C24.1725,25.0718596 24.1785,19.1577895 25.938,17.5767719 C25.97325,17.63 26.001,17.6868246 26.03925,17.738614 C26.85075,18.8341053 28.242,19.419614 29.99775,19.419614 C30.21975,19.419614 30.447,19.4102632 30.6795,19.3915614 C32.61525,19.2354737 34.72875,18.4348947 36.633,17.1372807 C38.53725,15.8396667 40.02225,14.1881579 40.81275,12.4870175 C41.6625,10.6592807 41.62725,8.97396491 40.713,7.73964912 Z M13.58025,11.1282632 C15.5895,10.783 17.847,13.5724386 18.53175,17.2171228 C19.0305,19.8756491 18.564,22.4406667 17.46075,23.7354035 C17.45775,23.7238947 17.45175,23.7116667 17.44875,23.7001579 C17.3145,23.172193 17.08275,22.6384737 16.76475,22.1112281 C16.74825,22.0831754 16.73175,22.0558421 16.7145,22.0285088 C16.3875,21.5012632 15.97425,20.9833684 15.48225,20.485614 C15.4605,20.4640351 15.438,20.4424561 15.41625,20.4208772 C15.1785,20.1842281 14.925,19.952614 14.652,19.7274737 C14.6385,19.7166842 14.6265,19.7051754 14.613,19.694386 C14.32875,19.4613333 14.02725,19.236193 13.7085,19.0189649 C13.67325,18.9945088 13.63575,18.9722105 13.59975,18.9484737 C13.383,18.8038947 13.1595,18.662193 12.92775,18.5262456 C12.927,18.5255263 12.92625,18.524807 12.92475,18.5240877 C12.924,18.5240877 12.92325,18.5240877 12.9225,18.5226491 C12.87,18.4917193 12.81375,18.4622281 12.75975,18.4320175 C12.68025,18.3867018 12.6015,18.341386 12.52125,18.2967895 C12.423,18.2428421 12.32625,18.1888947 12.225,18.136386 C12.22275,18.1349474 12.22125,18.1327895 12.21825,18.1320702 C11.979,18.0083509 11.73375,17.8882281 11.48325,17.7745789 C11.48325,17.7745789 11.48325,17.7745789 11.4825,17.7745789 C11.33025,17.7062456 11.17725,17.6407895 11.02425,17.5782105 C11.01525,17.4947719 11.004,17.4113333 10.99725,17.3278947 C10.99125,17.2545263 10.9845,17.1811579 10.97925,17.1085088 C10.965,16.899193 10.95675,16.6913158 10.9545,16.4855965 C10.9545,16.4604211 10.9521988,16.4352456 10.9521988,16.4100702 C10.9515,16.1705439 10.959,15.934614 10.974,15.7022807 C10.97625,15.6648772 10.98075,15.6289123 10.983,15.5922281 C10.99725,15.3987368 11.0175,15.2074035 11.04225,15.0211053 C11.04825,14.9743509 11.055,14.9283158 11.06175,14.8822807 C11.0925,14.6765614 11.12925,14.4737193 11.1735,14.2787895 C11.175,14.2708772 11.1765,14.2629649 11.178,14.2550526 C11.33025,13.5904211 11.5575,12.9919649 11.8545,12.4942105 C11.85975,12.4855789 11.85975,12.4755088 11.865,12.4668772 C12.30975,11.7317544 12.894,11.2462281 13.58025,11.1282632 Z M6.5775,11.7267193 C7.47075,11.2109825 8.84325,11.4562632 10.24875,12.3582632 C10.24875,12.3589825 10.24875,12.3589825 10.24875,12.3589825 C10.10175,12.6740351 9.975,13.0121053 9.86775,13.3681579 C9.86325,13.3832632 9.85875,13.3983684 9.85425,13.414193 C9.74925,13.7680877 9.66225,14.1385263 9.5985,14.5276667 L9.5985,14.528386 C9.47475,15.2757368 9.43125,16.0827895 9.47175,16.9279649 C9.47325,16.9646491 9.47025,16.9991754 9.47175,17.0358596 C9.4635,17.0337018 9.4545,17.0315439 9.44625,17.029386 C8.14425,16.6553509 6.87825,16.4863158 5.73,16.5251579 C5.08875,14.2924561 5.40825,12.4021404 6.5775,11.7267193 Z M12.83025,27.3124737 C11.16225,27.462807 9.20775,27.0801404 7.3335,26.2342456 C3.6555,24.5741053 1.3515,21.532193 2.304,19.5922456 C2.754,18.6729825 3.87225,18.1414211 5.31075,18.0076316 C5.63475,17.9767018 5.97225,17.9673509 6.32025,17.9774211 C6.375,17.9788596 6.42975,17.9824561 6.48525,17.984614 C6.82125,18.0004386 7.1655,18.0320877 7.51575,18.0838772 C7.57425,18.0925088 7.63425,18.1047368 7.69275,18.1140877 C8.05575,18.1737895 8.42175,18.2478772 8.7915,18.3457018 C8.81325,18.3514561 8.83575,18.3593684 8.8575,18.3651228 C9.2385,18.4679825 9.621,18.5902632 10.0005,18.7319649 C10.026,18.7413158 10.05075,18.7492281 10.07625,18.7585789 C10.33275,18.8556842 10.58925,18.9599825 10.84575,19.0750702 C11.06325,19.173614 11.2755,19.2779123 11.4825,19.3850877 C11.56425,19.4275263 11.64375,19.4728421 11.724,19.5167193 C11.83875,19.5792982 11.95275,19.6411579 12.0645,19.7058947 C12.16875,19.7670351 12.27,19.8303333 12.37125,19.8936316 C12.45375,19.9447018 12.5355,19.9957719 12.61575,20.0482807 C12.72825,20.1223684 12.83925,20.1978947 12.94725,20.2748596 C13.008,20.3180175 13.068,20.3611754 13.12725,20.4043333 C13.2435,20.4899298 13.35825,20.5762456 13.46925,20.6647193 C13.51275,20.6992456 13.55475,20.7344912 13.5975,20.7690175 C13.71675,20.8661228 13.83375,20.9646667 13.9455,21.0646491 C13.9695,21.0862281 13.992,21.107807 14.016,21.129386 C14.34,21.4242982 14.6295,21.7285614 14.88525,22.0371404 C14.96025,22.1277719 15.036,22.2184035 15.10425,22.3097544 C15.18,22.4104561 15.25125,22.5111579 15.3195,22.6125789 C15.3345,22.6348772 15.35175,22.6571754 15.366,22.6794737 C15.42825,22.7751404 15.483,22.870807 15.5385,22.967193 C15.56625,23.0161053 15.59625,23.0657368 15.6225,23.1146491 C15.66825,23.2002456 15.708,23.2851228 15.747,23.3707193 C15.774,23.4297018 15.801,23.4879649 15.825,23.5462281 C15.85725,23.6260702 15.88575,23.705193 15.91275,23.7843158 C15.93375,23.847614 15.95325,23.910193 15.9705,23.9720526 C15.9915,24.0468596 16.01025,24.1216667 16.02525,24.1957544 C16.03875,24.2612105 16.0485,24.3259474 16.0575,24.3899649 C16.06725,24.4597368 16.07625,24.5302281 16.08075,24.5992807 C16.08525,24.6683333 16.08375,24.7352281 16.08225,24.8028421 C16.0815,24.8647018 16.0815,24.9272807 16.07625,24.9884211 C16.0515,25.2437719 15.98775,25.4890526 15.87525,25.7185088 C15.43875,26.6082807 14.35725,27.1750877 12.83025,27.3124737 Z M33.8325,1.5565614 C35.10975,2.02482456 35.7735,3.83601754 35.55225,6.14712281 C35.53875,6.1492807 35.5245,6.15287719 35.51025,6.15503509 C34.6485,6.27659649 33.762,6.5197193 32.8785,6.87145614 C32.8635,6.87721053 32.8485,6.88368421 32.8335,6.89015789 C32.56875,6.99661404 32.30475,7.11314035 32.04225,7.23901754 C32.016,7.25124561 31.98975,7.26059649 31.96425,7.27354386 C31.95975,7.24045614 31.95075,7.21024561 31.94625,7.17715789 C31.77,5.89680702 31.413,4.74089474 30.918,3.7705614 C30.91125,3.75761404 30.90525,3.74466667 30.8985,3.7324386 C30.726,3.39940351 30.53925,3.08794737 30.336,2.80238596 C30.336,2.80238596 30.33525,2.80166667 30.33525,2.80166667 C31.563,1.65726316 32.841,1.19403509 33.8325,1.5565614 Z M23.0805,8.98907018 C23.0805,5.28540351 24.798,2.15573684 26.8305,2.15573684 C27.52725,2.15573684 28.1925,2.53408772 28.764,3.18217544 C28.77,3.19008772 28.77225,3.1994386 28.779,3.20735088 C29.163,3.64540351 29.496,4.19494737 29.7675,4.82145614 C29.7735,4.83440351 29.778,4.84807018 29.784,4.86101754 C29.8605,5.04012281 29.931,5.22642105 29.99775,5.41703509 C30.01425,5.46522807 30.03075,5.51342105 30.0465,5.56233333 C30.10425,5.73640351 30.15675,5.91550877 30.2055,6.09749123 C30.21675,6.13849123 30.22875,6.17805263 30.23925,6.21977193 C30.2955,6.44347368 30.3465,6.67149123 30.38925,6.90454386 C30.39525,6.93547368 30.399,6.9685614 30.40425,6.99949123 C30.43875,7.19514035 30.46725,7.39438596 30.49125,7.59507018 C30.50025,7.67131579 30.50775,7.7482807 30.51525,7.82596491 C30.5235,7.90652632 30.52725,7.98852632 30.534,8.06980702 C30.39525,8.15684211 30.25725,8.24747368 30.11925,8.34098246 C30.00375,8.41938596 29.895,8.50354386 29.78325,8.58410526 C29.676,8.66178947 29.565,8.73803509 29.46075,8.81715789 C29.46075,8.81715789 29.46075,8.81787719 29.46075,8.81787719 C29.37825,8.88117544 29.301,8.94663158 29.22075,9.01064912 C29.139,9.07610526 29.05875,9.1415614 28.97925,9.20845614 C28.7385,9.40985965 28.50525,9.61557895 28.284,9.82777193 C28.23375,9.87596491 28.182,9.9234386 28.1325,9.97235088 C27.90975,10.1924561 27.70125,10.4183158 27.501,10.6470526 C27.417,10.7427193 27.3375,10.8391053 27.258,10.9362105 C27.14625,11.0728772 27.03975,11.2109825 26.93625,11.349807 C26.92275,11.3677895 26.9085,11.3857719 26.895,11.4037544 C26.8785,11.4260526 26.86275,11.4490702 26.84625,11.4713684 C26.7855,11.5555263 26.72025,11.6389649 26.6625,11.7238421 C26.553,11.8856842 26.454,12.0496842 26.35725,12.2136842 C26.35125,12.2237544 26.3445,12.2338246 26.3385,12.2438947 C26.3025,12.3057544 26.26575,12.3668947 26.23125,12.4287544 C26.172,12.5344912 26.1195,12.6395088 26.0655,12.7452456 C26.052,12.7725789 26.03475,12.7999123 26.02125,12.8272456 C26.019,12.8308421 26.0205,12.8351579 26.019,12.8394737 C25.99425,12.8905439 25.96425,12.9408947 25.94025,12.9912456 C25.9035,13.0710877 25.87725,13.1487719 25.8435,13.2278947 C25.794,13.3444211 25.743,13.4609474 25.701,13.5774737 C25.60725,13.8328246 25.527,14.0860175 25.46925,14.3334561 C25.46175,14.3651053 25.4595,14.3960351 25.45275,14.4276842 C25.40025,14.6693684 25.36875,14.9060175 25.35075,15.1383509 C25.3485,15.1656842 25.34025,15.1944561 25.33875,15.2210702 C24.012,14.1349298 23.0805,11.6900351 23.0805,8.98907018 Z M39.44325,11.9007895 C38.76,13.3703158 37.45425,14.8132281 35.76525,15.963386 C34.077,17.1142632 32.226,17.8220526 30.55425,17.9565614 C29.02425,18.0802807 27.8565,17.7062456 27.2625,16.9042281 C27.117,16.7078596 27.00975,16.4884737 26.937,16.250386 C26.91675,16.1827719 26.90475,16.1122807 26.8905,16.0425088 C26.87925,15.9885614 26.865,15.9367719 26.85675,15.881386 C26.84625,15.8072982 26.844,15.7303333 26.8395,15.6540877 C26.8365,15.5979825 26.8305,15.5440351 26.8305,15.4864912 C26.8305,15.408807 26.838,15.3282456 26.844,15.2484035 C26.8485,15.1894211 26.85075,15.1311579 26.85825,15.0707368 C26.86875,14.9880175 26.88525,14.9031404 26.901,14.8189825 C26.91225,14.7592807 26.92275,14.6995789 26.937,14.6391579 C26.958,14.5492456 26.985,14.4571754 27.012,14.3658246 C27.0285,14.3097193 27.045,14.2543333 27.0645,14.1975088 C27.099,14.0953684 27.138,13.9917895 27.18,13.8882105 C27.19725,13.8457719 27.2145,13.8033333 27.23325,13.7601754 C27.282,13.6479649 27.33375,13.5350351 27.39075,13.4221053 C27.441,13.3199649 27.50025,13.216386 27.55725,13.1135263 C27.843,12.6049825 28.203,12.0921228 28.635,11.5936491 C28.644,11.5828596 28.653,11.5720702 28.662,11.5612807 C28.77675,11.4303684 28.89675,11.3001754 29.01975,11.1721404 C29.04225,11.1491228 29.06475,11.125386 29.08725,11.1016491 C29.20275,10.9836842 29.322,10.8671579 29.44425,10.7520702 C29.4855,10.7139474 29.52675,10.6751053 29.56875,10.6369825 C29.67825,10.537 29.79,10.4370175 29.90475,10.339193 C29.9865,10.2708596 30.06975,10.2025263 30.15375,10.1356316 C30.2415,10.0644211 30.3285,9.99249123 30.41925,9.9234386 C30.54225,9.82921053 30.67125,9.73857895 30.80025,9.64722807 C30.8625,9.60335088 30.92175,9.55659649 30.9855,9.5134386 C31.22325,9.35159649 31.46325,9.20126316 31.704,9.05884211 C31.743,9.03582456 31.78275,9.01496491 31.82175,8.99266667 C32.72325,8.47261404 33.66075,8.07340351 34.57275,7.82092982 C34.59,7.81589474 34.6065,7.81157895 34.62375,7.80726316 C34.7955,7.76050877 34.9665,7.71950877 35.136,7.68354386 C35.16825,7.67635088 35.2005,7.67059649 35.232,7.66412281 C35.391,7.63175439 35.54925,7.60298246 35.70525,7.58068421 C35.74425,7.57492982 35.7825,7.57133333 35.82075,7.56701754 C35.9745,7.54687719 36.12825,7.52889474 36.27825,7.51882456 C36.279,7.51882456 36.2805,7.51810526 36.28125,7.51810526 C36.44175,7.50731579 36.6,7.49868421 36.75225,7.49868421 C38.0085,7.49868421 38.96775,7.8734386 39.4875,8.57475439 C40.0845,9.37533333 40.068,10.5571404 39.44325,11.9007895 Z" id="形状"></path>
            <path d="M32.2635,29.8609474 C35.0385,28.0044386 36.87,24.8632632 36.87675,21.3041754 C36.8775,21.0114211 36.693,20.7481579 36.411,20.6366667 C36.26625,20.5805614 36.111,20.5704912 35.96325,20.6007018 C33.2235,20.6337895 30.654,21.7041053 28.7145,23.6246316 C26.7675,25.5516316 25.68825,28.1094561 25.6605,30.8348772 C25.65975,30.839193 25.6575,30.8435088 25.6575,30.8478246 C25.65675,30.8535789 25.659,30.8593333 25.659,30.8650877 C25.659,30.8852281 25.656,30.9039298 25.656,30.9240702 C25.656,30.9629123 25.668,30.9988772 25.674,31.0362807 C25.677,31.0521053 25.67775,31.0686491 25.6815,31.0844737 C25.70475,31.1765439 25.743,31.2621404 25.8015,31.3369474 C27.28275,34.6766491 30.73575,36.6921228 34.41975,36.6921228 C35.6355,36.6921228 36.876,36.4727368 38.079,36.0095088 C38.3625,35.9001754 38.5485,35.6369123 38.5492588,35.3441579 C38.55,35.1974211 38.50275,35.0578772 38.42175,34.9406316 C37.30875,32.3993509 35.01825,30.5586667 32.2635,29.8609474 Z M29.7915,24.6251754 C31.29825,23.1333509 33.246,22.2414211 35.3415,22.0687895 C35.0385,25.5171053 32.75175,28.4036491 29.63025,29.5969649 C29.625,29.5991228 29.619,29.5976842 29.61375,29.5998421 C28.878,29.8789298 28.122,30.0551579 27.35775,30.1357193 C27.31425,30.1400351 27.27225,30.1486667 27.22875,30.1522632 C27.21525,30.1537018 27.2025,30.1529825 27.189,30.1544211 C27.372,28.0619825 28.2795,26.1220351 29.7915,24.6251754 Z M27.58725,31.5642456 C27.99075,31.5203684 28.386,31.447 28.7745,31.3585263 C28.82175,31.3477368 28.86825,31.3333509 28.9155,31.3218421 C29.26575,31.2369649 29.6085,31.1341053 29.94375,31.0147018 C29.97,31.0053509 29.997,31.0003158 30.024,30.9909649 C32.91225,31.0672105 35.469,32.5798947 36.75825,34.9276842 C33.17775,35.9404561 29.3745,34.5277544 27.58725,31.5642456 Z" id="形状"></path>
        </g>
    </g>
</svg>