<?xml version="1.0" encoding="UTF-8"?>
<svg width="52px" height="52px" viewBox="0 0 52 52" version="1.1" xmlns="http://www.w3.org/2000/svg" xmlns:xlink="http://www.w3.org/1999/xlink">
    <!-- Generator: Sketch 55.1 (78136) - https://sketchapp.com -->
    <title>首次下单</title>
    <desc>Created with Sketch.</desc>
    <g id="首次下单" stroke="none" stroke-width="1" fill="none" fill-rule="evenodd">
        <g id="形状" transform="translate(8.000000, 4.000000)" fill="#333333" fill-rule="nonzero">
            <path d="M35.9357143,38.898773 L33.3642857,9.88343558 C33.3091837,9.2392638 32.7673469,8.75153374 32.1336735,8.75153374 L26.8438776,8.75153374 C26.7704082,3.91104294 22.8214286,0 17.972449,0 C13.1234694,0 9.1744898,3.91104294 9.10102041,8.75153374 L3.81122449,8.75153374 C3.16836735,8.75153374 2.63571429,9.2392638 2.58061224,9.88343558 L0.00918367347,38.898773 C0.00918367347,38.9355828 -1.42108547e-13,38.9723926 -1.42108547e-13,39.0092025 C-1.42108547e-13,42.3128834 3.02142857,45 6.74081633,45 L29.2040816,45 C32.9234694,45 35.944898,42.3128834 35.944898,39.0092025 C35.944898,38.9723926 35.944898,38.9355828 35.9357143,38.898773 Z M17.972449,2.48466258 C21.4530612,2.48466258 24.2908163,5.28220859 24.3642857,8.75153374 L11.5806122,8.75153374 C11.6540816,5.28220859 14.4918367,2.48466258 17.972449,2.48466258 Z M29.2040816,42.5153374 L6.74081633,42.5153374 C4.40816327,42.5153374 2.51632653,40.9693252 2.47959184,39.0644172 L4.94081633,11.2453988 L9.09183673,11.2453988 L9.09183673,15.0184049 C9.09183673,15.708589 9.64285714,16.2607362 10.3316327,16.2607362 C11.0204082,16.2607362 11.5714286,15.708589 11.5714286,15.0184049 L11.5714286,11.2453988 L24.3642857,11.2453988 L24.3642857,15.0184049 C24.3642857,15.708589 24.9153061,16.2607362 25.6040816,16.2607362 C26.2928571,16.2607362 26.8438776,15.708589 26.8438776,15.0184049 L26.8438776,11.2453988 L30.994898,11.2453988 L33.4653061,39.0644172 C33.4285714,40.9693252 31.527551,42.5153374 29.2040816,42.5153374 Z"></path>
        </g>
        <rect id="矩形" fill-opacity="0" fill="#D8D8D8" x="0" y="0" width="52" height="52"></rect>
    </g>
</svg>