<?xml version="1.0" encoding="UTF-8"?>
<svg width="52px" height="52px" viewBox="0 0 52 52" version="1.1" xmlns="http://www.w3.org/2000/svg" xmlns:xlink="http://www.w3.org/1999/xlink">
    <!-- Generator: Sketch 55.1 (78136) - https://sketchapp.com -->
    <title>f+</title>
    <desc>Created with Sketch.</desc>
    <g id="f+" stroke="none" stroke-width="1" fill="none" fill-rule="evenodd">
        <g id="balloon" transform="translate(13.000000, 6.000000)" fill="#333333">
            <g>
                <path d="M26.9549121,13.0921875 C26.9549121,5.87318117 20.9141895,0 13.4889258,0 C6.06366209,0 0.0224120925,5.87318117 0.0224120925,13.0921875 C0.0224120925,19.388855 4.61874022,24.6609009 10.7201074,25.9054688 L7.17134769,29.3556519 C6.37558594,30.1290527 6.94089844,31.4561645 8.06625,31.4561645 L12.2233008,31.4561645 L12.2233008,33.4146606 C12.2233008,35.1911499 13.3876758,36.7623047 15.1213183,37.3239624 C15.1292285,37.3265259 15.1374023,37.3290894 15.1453125,37.3316528 C15.8308594,37.5639038 16.2901758,38.1909302 16.2901758,38.8984497 L16.2901758,40.7695312 C16.2901758,41.4491089 16.8565429,42 17.5558008,42 C18.2547949,42 18.8214258,41.4491089 18.8214258,40.7695312 L18.8214258,38.8984497 C18.8214258,37.1219605 17.6565234,35.5508056 15.9228808,34.989148 C15.9149707,34.9865845 15.9070605,34.984021 15.8988867,34.9817139 C15.2133398,34.7492066 14.7545508,34.1224366 14.7545508,33.4146606 L14.7545508,31.4564209 L18.9113379,31.4564209 C20.0364258,31.4564209 20.6017383,30.1290527 19.8062402,29.3556519 L16.2574804,25.9054687 C22.3591113,24.6609009 26.9549121,19.388855 26.9549121,13.0921875 Z M11.1216797,28.9954834 L13.4889258,26.6939941 L15.8556446,28.9954834 L11.1216797,28.9954834 Z M13.4891895,23.7234375 C13.4889258,23.7234375 13.4886621,23.7234375 13.4886621,23.7234375 C7.45901365,23.7234375 2.55366209,18.9540894 2.55366209,13.0921875 C2.55366209,7.2300293 7.45901365,2.4609375 13.4889258,2.4609375 C19.5183105,2.4609375 24.4236621,7.2300293 24.4236621,13.0921875 C24.4236621,18.9543457 19.5183105,23.7234375 13.4891895,23.7234375 Z" id="形状" fill-rule="nonzero"></path>
                <path d="M19.1773828,7.56199953 C17.6581054,6.08518063 15.6383789,5.27178953 13.4902442,5.27178953 L13.4889258,5.27178953 C12.7899317,5.27178953 12.2238281,5.82268063 12.2238281,6.50225828 C12.2238281,7.18183594 12.79125,7.73272703 13.4902442,7.73272703 C14.9625879,7.73272703 16.3463379,8.29002687 17.3873145,9.30183109 C18.4280273,10.3138916 19.00125,11.6592041 19.00125,13.0919312 C19.00125,13.7715088 19.5678808,14.3218872 20.266875,14.3218872 C20.9658692,14.3218872 21.5325,13.7704834 21.5325,13.0906494 C21.5325,11.0021851 20.6961328,9.03856203 19.1773828,7.56199953 Z" id="路径" fill-rule="nonzero"></path>
            </g>
        </g>
        <rect id="矩形备份" x="0" y="0" width="52" height="52"></rect>
    </g>
</svg>