<?xml version="1.0" encoding="UTF-8"?>
<svg width="52px" height="52px" viewBox="0 0 52 52" version="1.1" xmlns="http://www.w3.org/2000/svg" xmlns:xlink="http://www.w3.org/1999/xlink">
    <!-- Generator: Sketch 55.1 (78136) - https://sketchapp.com -->
    <title>个人资料</title>
    <desc>Created with Sketch.</desc>
    <g id="个人资料" stroke="none" stroke-width="1" fill="none" fill-rule="evenodd">
        <rect id="矩形" fill-opacity="0" fill="#D8D8D8" x="0" y="0" width="52" height="52"></rect>
        <g id="avatar" transform="translate(7.000000, 4.000000)" fill="#333333" fill-rule="nonzero">
            <path d="M18.8268473,23.7035197 C18.873076,23.7035197 18.9193047,23.7035197 18.9747791,23.7035197 C18.9932706,23.7035197 19.0117621,23.7035197 19.0302536,23.7035197 C19.0579908,23.7035197 19.0949738,23.7035197 19.122711,23.7035197 C21.8317135,23.657971 24.0229543,22.7196687 25.6409592,20.9250518 C29.2005699,16.9714286 28.6088424,10.1937888 28.5441222,9.54699793 C28.3129787,4.69151139 25.9830517,2.36853002 24.0599373,1.28447205 C22.6268473,0.473706004 20.953368,0.0364389234 19.0857281,1.77635684e-15 L19.0210079,1.77635684e-15 C19.0117621,1.77635684e-15 18.9932706,1.77635684e-15 18.9840249,1.77635684e-15 L18.9285504,1.77635684e-15 C17.9022731,1.77635684e-15 15.8867013,0.163975155 13.9543412,1.24803313 C12.0127354,2.3320911 9.64582537,4.65507246 9.41468182,9.54699793 C9.34996163,10.1937888 8.75823413,16.9714286 12.3178448,20.9250518 C13.926604,22.7196687 16.1178448,23.657971 18.8268473,23.7035197 Z M11.883295,9.7747412 C11.883295,9.74741201 11.8925407,9.72008282 11.8925407,9.70186335 C12.1976502,3.17018634 16.9037329,2.46873706 18.9193047,2.46873706 L18.9562877,2.46873706 C18.9747791,2.46873706 19.0025164,2.46873706 19.0302536,2.46873706 C21.526604,2.52339545 25.7703996,3.52546584 26.0570176,9.70186335 C26.0570176,9.72919255 26.0570176,9.75652174 26.0662633,9.7747412 C26.0755091,9.83850932 26.722711,16.0331263 23.782565,19.2944099 C22.6176015,20.5879917 21.0643169,21.2256729 19.0210079,21.2438923 C19.0025164,21.2438923 18.9932706,21.2438923 18.9747791,21.2438923 L18.9747791,21.2438923 C18.9562877,21.2438923 18.9470419,21.2438923 18.9285504,21.2438923 C16.8944872,21.2256729 15.3319568,20.5879917 14.176239,19.2944099 C11.2453388,16.0513458 11.8740492,9.82939959 11.883295,9.7747412 Z" id="形状"></path>
            <path d="M37.9747791,34.9449275 C37.9747791,34.9358178 37.9747791,34.9267081 37.9747791,34.9175983 C37.9747791,34.8447205 37.9655334,34.7718427 37.9655334,34.6898551 C37.910059,32.8861284 37.7898643,28.668323 33.7772122,27.3200828 C33.749475,27.3109731 33.712492,27.3018634 33.6847548,27.2927536 C29.5149251,26.2451346 26.0477718,23.8766046 26.0107889,23.8492754 C25.4467986,23.4575569 24.6701563,23.5942029 24.2725894,24.1498965 C23.8750225,24.7055901 24.0137086,25.4708075 24.5776989,25.8625259 C24.7348765,25.9718427 28.4146818,28.4952381 33.0190614,29.6612836 C35.1733193,30.4173913 35.4137086,32.6857143 35.4784288,34.7627329 C35.4784288,34.8447205 35.4784288,34.9175983 35.4876745,34.9904762 C35.4969203,35.810352 35.4414458,37.0766046 35.2935139,37.805383 C33.7957037,38.6434783 27.9246575,41.5403727 18.9932706,41.5403727 C10.0988667,41.5403727 4.19083754,38.6343685 2.68378158,37.7962733 C2.53584971,37.0674948 2.47112951,35.8012422 2.489621,34.9813665 C2.489621,34.9084886 2.49886674,34.8356108 2.49886674,34.7536232 C2.56358693,32.6766046 2.80397623,30.4082816 4.95823413,29.6521739 C9.5626137,28.4861284 13.242419,25.9536232 13.3995967,25.8534161 C13.9635869,25.4616977 14.1022731,24.6964803 13.7047062,24.1407867 C13.3071392,23.5850932 12.5304969,23.4484472 11.9665066,23.8401656 C11.9295237,23.8674948 8.48086187,26.2360248 4.2925407,27.2836439 C4.25555773,27.2927536 4.22782051,27.3018634 4.20008328,27.3109731 C0.187431214,28.668323 0.0672365669,32.8861284 0.0117621144,34.6807453 C0.0117621144,34.7627329 0.0117621144,34.8356108 0.00251637227,34.9084886 C0.00251637227,34.9175983 0.00251637227,34.9267081 0.00251637227,34.9358178 C-0.00672936982,35.4095238 -0.0159751119,37.8418219 0.474049219,39.0625259 C0.56650664,39.2993789 0.732929998,39.499793 0.954827808,39.6364389 C1.23220007,39.8186335 7.87988864,43.9908903 19.0025164,43.9908903 C30.1251441,43.9908903 36.7728327,39.8095238 37.0502049,39.6364389 C37.262857,39.499793 37.4385261,39.2993789 37.5309835,39.0625259 C37.9932706,37.8509317 37.9840249,35.4186335 37.9747791,34.9449275 Z" id="路径"></path>
        </g>
    </g>
</svg>