<?xml version="1.0" encoding="UTF-8"?>
<svg width="52px" height="52px" viewBox="0 0 52 52" version="1.1" xmlns="http://www.w3.org/2000/svg" xmlns:xlink="http://www.w3.org/1999/xlink">
    <!-- Generator: Sketch 55.1 (78136) - https://sketchapp.com -->
    <title>轻礼</title>
    <desc>Created with Sketch.</desc>
    <g id="轻礼" stroke="none" stroke-width="1" fill="none" fill-rule="evenodd">
        <g id="gift-(5)" transform="translate(7.000000, 10.000000)" fill="#333333" fill-rule="nonzero">
            <path d="M35.625,10.4684639 L28.1105,10.4684639 C28.649625,10.0954459 29.11275,9.72483456 29.43575,9.39272826 C31.35,7.44100211 31.35,4.26433316 29.43575,2.31260701 C27.576125,0.416231908 24.331875,0.41382534 22.469875,2.31260701 C21.4415,3.35946382 18.707875,7.62149466 19.0855,10.4684639 L18.9145,10.4684639 C19.28975,7.62149466 16.5585,3.35946382 15.530125,2.31260701 C13.668125,0.41382534 10.423875,0.416231908 8.56425,2.31260701 C6.65,4.26433316 6.65,7.44100211 8.561875,9.39272826 C8.88725,9.72483456 9.350375,10.0954459 9.8895,10.4684639 L2.375,10.4684639 C1.066375,10.4684639 0,11.5490126 0,12.8750313 L0,18.8914497 C0,19.5556623 0.532,20.0947334 1.1875,20.0947334 L2.375,20.0947334 L2.375,34.5341377 C2.375,35.8601564 3.441375,36.9407051 4.75,36.9407051 L33.25,36.9407051 C34.558625,36.9407051 35.625,35.8601564 35.625,34.5341377 L35.625,20.0947334 L36.8125,20.0947334 C37.468,20.0947334 38,19.5556623 38,18.8914497 L38,12.8750313 C38,11.5490126 36.933625,10.4684639 35.625,10.4684639 Z M10.248125,4.00923702 C10.73025,3.51829727 11.369125,3.24876172 12.048375,3.24876172 C12.72525,3.24876172 13.364125,3.51829727 13.84625,4.00923702 C15.447,5.6408897 17.03825,9.80906442 16.484875,10.3890472 C16.484875,10.3890472 16.385125,10.4684639 16.0455,10.4684639 C14.404375,10.4684639 11.27175,8.7405485 10.248125,7.69609825 C9.253,6.68052681 9.253,5.02480845 10.248125,4.00923702 Z M17.8125,34.5341377 L4.75,34.5341377 L4.75,20.0947334 L17.8125,20.0947334 L17.8125,34.5341377 Z M17.8125,17.688166 L2.375,17.688166 L2.375,12.8750313 L16.0455,12.8750313 L17.8125,12.8750313 L17.8125,17.688166 Z M24.15375,4.00923702 C25.118,3.02976409 26.79,3.03217066 27.751875,4.00923702 C28.747,5.02480845 28.747,6.68052681 27.751875,7.69609825 C26.72825,8.7405485 23.595625,10.4684639 21.9545,10.4684639 C21.614875,10.4684639 21.515125,10.3914537 21.51275,10.3890472 C20.96175,9.80906442 22.553,5.6408897 24.15375,4.00923702 Z M33.25,34.5341377 L20.1875,34.5341377 L20.1875,20.0947334 L33.25,20.0947334 L33.25,34.5341377 Z M35.625,17.688166 L20.1875,17.688166 L20.1875,12.8750313 L21.9545,12.8750313 L35.625,12.8750313 L35.625,17.688166 Z" id="形状"></path>
        </g>
        <rect id="矩形" fill-opacity="0" fill="#D8D8D8" x="0" y="0" width="52" height="52"></rect>
    </g>
</svg>