<?xml version="1.0" encoding="UTF-8"?>
<svg width="52px" height="52px" viewBox="0 0 52 52" version="1.1" xmlns="http://www.w3.org/2000/svg" xmlns:xlink="http://www.w3.org/1999/xlink">
    <!-- Generator: Sketch 55.1 (78136) - https://sketchapp.com -->
    <title>迷藏</title>
    <desc>Created with Sketch.</desc>
    <g id="迷藏" stroke="none" stroke-width="1" fill="none" fill-rule="evenodd">
        <g id="flower-(2)" transform="translate(7.000000, 1.000000)" fill="#333333" fill-rule="nonzero">
            <path d="M38.844726,23.9436503 C38.6422167,23.6236047 38.2780941,23.4476942 37.9036243,23.4905263 C37.6272065,23.5221026 31.0765477,24.3046354 26.1127538,27.7068002 C25.5081822,28.121176 24.9567262,28.5545773 24.4530643,28.9967441 C24.5170198,28.8453376 24.5809753,28.6941303 24.6448323,28.5431222 C25.57943,26.3328854 26.5422115,24.0548146 27.4228067,21.587884 C28.06315,21.73431 28.6886131,21.8092164 29.2922978,21.8092164 C30.3372655,21.8092164 31.3176865,21.590175 32.1998584,21.152889 C33.9649907,20.2781177 35.2556303,18.6159328 36.0360056,16.2126528 C36.5951481,14.4907021 37.2414041,11.9281463 36.4017049,9.56640345 C36.3107482,9.31060608 36.1202613,9.10341817 35.8743923,8.99295116 C35.6286219,8.88258376 35.3488536,8.87859937 35.1000283,8.98179489 L33.4761105,9.65585284 C33.1581069,7.58337614 32.2595765,5.97926363 32.2014352,5.87736304 C31.9503433,5.4376864 31.4123879,5.25888722 30.9521843,5.46298723 C30.849008,5.50870802 29.2870749,6.21613519 27.8529542,7.6017043 L27.0365116,6.11652562 C26.9052501,5.87786109 26.6829333,5.70404239 26.4213957,5.63590945 C26.1598581,5.56757728 25.8820607,5.61090744 25.6530429,5.75564015 C23.9483185,6.83212077 22.7252805,8.65457745 21.8041834,11.4912588 C21.0238081,13.8945389 21.0889462,16.006461 21.9979223,17.7682554 C22.708725,19.1461546 23.9276241,20.2363813 25.5505564,20.9619374 C24.6931192,23.3578464 23.7491597,25.5922883 22.8324971,27.7601909 C21.3338297,31.3042994 19.8046134,34.9216209 18.534274,39.4453895 L18.5329929,39.4453895 C17.8625935,38.041293 17.2283599,36.568466 16.648523,35.0101738 C16.5523434,34.547089 16.0338013,32.18435 14.9116731,29.3404968 C14.0116646,25.6347219 13.4431603,21.4688505 13.3767412,16.6844037 C15.1491658,16.508792 16.6491143,15.8565485 17.7527161,14.7684136 C19.1598356,13.3807527 19.8733976,11.3947371 19.8733976,8.86525169 C19.8733976,7.05295518 19.6968055,4.4144969 18.1703485,2.43515515 C18.0049905,2.22069574 17.760107,2.0839318 17.4924596,2.05643956 C17.2251079,2.02884771 16.9577562,2.11341624 16.753276,2.290024 L15.4186855,3.44200868 C14.4771896,1.57313393 13.1282116,0.332596353 13.0414922,0.254004402 C12.6673181,-0.0846681341 12.1008833,-0.0846681341 11.7267092,0.254004402 C11.6427491,0.330006504 10.37645,1.49404393 9.44116249,3.26251223 L8.20787586,2.10923264 C8.00960397,1.92385923 7.7452086,1.82942935 7.47509764,1.84636298 C7.20557795,1.86399387 6.95497884,1.99268944 6.78193439,2.20236758 C5.49434965,3.76275149 4.89470529,5.87985328 4.89470529,8.86525169 C4.89470529,11.3946375 5.60816875,13.3807527 7.01538673,14.7684136 C8.12204345,15.8595368 9.62711629,16.512378 11.4058477,16.6858978 C11.4375791,19.0310059 11.5878597,21.2998131 11.8586605,23.5042725 C8.43906167,18.6173274 1.80286606,14.2635923 1.51925448,14.0789162 C1.17513647,13.8547946 0.72981308,13.8691384 0.400279681,14.1147756 C0.0709433724,14.3605124 -0.0739173021,14.7865426 0.0366498249,15.1849808 C0.126128391,15.5079151 2.26829257,23.1517542 5.63970304,28.0714708 C8.63910736,32.4483153 13.5787578,35.2805142 14.9242868,35.9981016 C14.9332544,36.0215098 14.9417292,36.0451173 14.9506968,36.0685255 C15.3965129,37.2364477 15.8700201,38.3572546 16.3685576,39.4452899 L15.6359765,39.4452899 C15.0917142,39.4452899 14.6505297,39.8913416 14.6505297,40.4413856 C14.6505297,40.9914297 15.0917142,41.4374813 15.6359765,41.4374813 L17.3262148,41.4374813 C17.4787619,41.7410913 17.63328,42.0427091 17.7896704,42.3427331 C17.7063016,42.6993354 17.6245095,43.0615157 17.5445898,43.4296727 L16.4244324,43.4296727 C15.8801702,43.4296727 15.4389857,43.8757244 15.4389857,44.4257684 C15.4389857,44.9758125 15.8801702,45.4218641 16.4244324,45.4218641 L17.1414435,45.4218641 C16.879019,46.8173942 16.6417235,48.2960982 16.4346811,49.8727185 C16.3630391,50.4181805 16.7423376,50.9189178 17.2818697,50.9912344 C17.3259191,50.9972109 17.3695744,51 17.4128356,51 C17.8994492,51 18.3226985,50.6357278 18.3884278,50.1348909 C18.6087737,48.4570673 18.8647928,46.892201 19.149784,45.4217645 L19.4854272,45.4217645 C20.4661438,47.120008 21.5039178,48.8026129 22.5881063,50.5361182 C22.7756368,50.835943 23.0952172,51 23.4219914,51 C23.6020325,51 23.7842416,50.9501952 23.9476287,50.8457048 C24.4076352,50.5517569 24.5448094,49.9364686 24.2540041,49.4714912 C23.4241594,48.1445921 22.576281,46.788607 21.738257,45.3782351 C22.141896,45.2536235 22.4356577,44.8744099 22.4356577,44.4256688 C22.4356577,43.8756248 21.9944732,43.4295731 21.4502109,43.4295731 L20.610019,43.4295731 C20.3638544,42.991789 20.1198578,42.5478292 19.8784234,42.0974943 C19.9330171,41.8752654 19.9882021,41.6552278 20.044077,41.4373817 L21.4502109,41.4373817 C21.9944732,41.4373817 22.4356577,40.9913301 22.4356577,40.441286 C22.4356577,39.891242 21.9944732,39.4451903 21.4502109,39.4451903 L20.5882407,39.4451903 C20.7895674,38.7515093 20.9972011,38.0794435 21.2097619,37.4254071 C22.713061,37.3441257 26.459631,36.8559392 30.4264484,34.1371956 C35.36738,30.7508687 38.7166179,25.2304067 38.856847,24.9970215 C39.0519654,24.6723939 39.0473338,24.2637954 38.844726,23.9436503 Z M34.1634597,15.5913879 C33.5549463,17.4652431 32.6024134,18.7346675 31.3322711,19.3641003 C30.4035861,19.8243961 29.2863851,19.9334686 28.0616718,19.6899232 L29.6090204,14.9246014 C29.9692011,13.8152496 30.7886001,12.9248397 31.8570215,12.4814775 L34.7880358,11.2649458 C34.937331,12.4361551 34.7318654,13.8412477 34.1634597,15.5913879 Z M30.9022221,7.74783154 C31.1724316,8.40963752 31.4931946,9.38202614 31.5891771,10.4390829 L31.1084762,10.6386009 C30.6155557,10.8430993 30.1584069,11.1116467 29.7454062,11.4330868 C29.6212399,10.9524706 29.4384395,10.4855009 29.1963152,10.0450274 L28.8502263,9.41539534 C29.5301846,8.66583333 30.319626,8.10483224 30.9022221,7.74783154 Z M23.7455136,16.8470661 C23.0914725,15.5793351 23.0683145,13.9861797 23.6768279,12.1123244 C24.2725305,10.2777154 24.9826434,8.97432417 25.8726989,8.10094746 L27.4733601,11.0126348 C28.0053043,11.9804414 28.1144918,13.1387014 27.7729359,14.1904789 L26.1889288,19.0686583 C25.0595083,18.5310655 24.2237509,17.7741324 23.7455136,16.8470661 Z M17.1611524,4.55773546 C17.6643216,5.62335864 17.9026026,7.02317192 17.9026026,8.86525169 C17.9026026,12.2893306 16.3030254,14.3235573 13.3695475,14.6842435 L13.3695475,9.66740755 C13.3695475,8.4999834 13.8733079,7.3956121 14.7516366,6.63748367 L17.1611524,4.55773546 Z M12.3858745,2.43864148 C12.8472607,2.98041793 13.4518323,3.80299376 13.8688733,4.77976519 L13.4717383,5.12252172 C13.0665226,5.47225092 12.7151123,5.87138647 12.4218433,6.30697912 C12.1555756,5.88951541 11.8378676,5.50342872 11.4718726,5.16136946 L10.9493888,4.67288413 C11.3650502,3.74502099 11.9423249,2.96149211 12.3858745,2.43864148 Z M6.86559882,8.86525169 C6.86559882,6.93432018 7.1381734,5.47215131 7.71436412,4.36160422 L10.1335374,6.62373755 C10.9374649,7.37549097 11.3985554,8.44151258 11.3985554,9.54857334 L11.3985554,9.66730794 L11.3985554,14.6841439 C8.46517601,14.3235573 6.86559882,12.2893306 6.86559882,8.86525169 Z M7.25987607,26.9370175 C5.29795011,24.0741388 3.73838205,20.0966291 2.82615398,17.4507001 C5.07001627,19.1503382 8.37589453,21.9181893 10.3382147,24.781566 C11.4920743,26.4653661 12.3876483,28.339321 13.0604128,30.0424454 C13.3152494,31.0682247 13.5996493,32.0814533 13.9140068,33.0837248 C11.9618368,31.8187828 9.1447401,29.6875365 7.25987607,26.9370175 Z M29.3204815,32.4885576 C26.4498751,34.4559462 23.683529,35.1174534 22.0619763,35.3385866 C22.7872651,33.8241227 24.3224926,31.3406569 27.2189178,29.3556374 C30.0741512,27.3987078 33.611708,26.3711355 35.8690709,25.8750798 C34.5092529,27.725228 32.1782772,30.529835 29.3204815,32.4885576 Z" id="形状"></path>
        </g>
        <rect id="矩形" fill-opacity="0" fill="#D8D8D8" x="0" y="0" width="52" height="52"></rect>
    </g>
</svg>