<?xml version="1.0" encoding="UTF-8"?>
<svg width="52px" height="52px" viewBox="0 0 52 52" version="1.1" xmlns="http://www.w3.org/2000/svg" xmlns:xlink="http://www.w3.org/1999/xlink">
    <!-- Generator: Sketch 55.1 (78136) - https://sketchapp.com -->
    <title>手机</title>
    <desc>Created with Sketch.</desc>
    <g id="手机" stroke="none" stroke-width="1" fill="none" fill-rule="evenodd">
        <g id="smartphone-(1)" transform="translate(26.000000, 26.500000) scale(-1, 1) translate(-26.000000, -26.500000) translate(13.000000, 5.000000)" fill="#333333">
            <g>
                <path d="M25.9253378,39.6126531 L25.9253378,3.33469388 C25.9253378,1.50061224 24.4320946,0 22.5875,0 L3.36858108,0 C1.53277027,0 0.0307432432,1.49183673 0.0307432432,3.33469388 L0.0307432432,39.6214286 C0.0307432432,41.4555102 1.52398649,42.9561224 3.36858108,42.9561224 L22.5875,42.9561224 C24.4233108,42.9473469 25.9253378,41.4555102 25.9253378,39.6126531 Z M2.18277027,7.73122449 L23.764527,7.73122449 L23.764527,32.1446939 L2.18277027,32.1446939 L2.18277027,7.73122449 Z M3.36858108,2.15 L22.5875,2.15 C23.2375,2.15 23.7733108,2.67653061 23.7733108,3.33469388 L23.7733108,5.58122449 L2.18277027,5.58122449 L2.18277027,3.33469388 C2.18277027,2.67653061 2.71858108,2.15 3.36858108,2.15 Z M2.18277027,39.6126531 L2.18277027,34.2859184 L23.764527,34.2859184 L23.764527,39.6126531 C23.764527,40.2620408 23.2375,40.7973469 22.5787162,40.7973469 L3.36858108,40.7973469 C2.71858108,40.7973469 2.18277027,40.2708163 2.18277027,39.6126531 Z" id="形状" fill-rule="nonzero"></path>
                <path d="M15.1564189,36.5587755 L10.7908784,36.5587755 C10.1935811,36.5587755 9.71047297,37.0414286 9.71047297,37.6381633 C9.71047297,38.234898 10.1935811,38.717551 10.7908784,38.717551 L15.1564189,38.717551 C15.7537162,38.717551 16.2368243,38.234898 16.2368243,37.6381633 C16.2368243,37.0414286 15.7537162,36.5587755 15.1564189,36.5587755 Z" id="路径" fill-rule="nonzero"></path>
            </g>
        </g>
        <rect id="矩形" fill-opacity="0" fill="#D8D8D8" x="0" y="0" width="52" height="52"></rect>
    </g>
</svg>