<?xml version="1.0" encoding="UTF-8"?>
<svg width="52px" height="52px" viewBox="0 0 52 52" version="1.1" xmlns="http://www.w3.org/2000/svg" xmlns:xlink="http://www.w3.org/1999/xlink">
    <!-- Generator: Sketch 55.1 (78136) - https://sketchapp.com -->
    <title>一个月</title>
    <desc>Created with Sketch.</desc>
    <g id="一个月" stroke="none" stroke-width="1" fill="none" fill-rule="evenodd">
        <g id="flowers" transform="translate(11.000000, 5.000000)" fill="#333333">
            <g>
                <path d="M30.72,20.3467102 L23.714,20.3467102 C24.1876667,18.5198669 25.618,17.1885071 27.304,17.1885071 C28.0106667,17.1885071 28.584,16.6114502 28.584,15.8994446 C28.584,15.1877747 28.0106667,14.6103821 27.304,14.6103821 C24.2246666,14.6103821 21.653,17.0844421 21.0983334,20.3467102 L17.3003333,20.3467102 L17.3003333,16.9199524 C17.703,17.0327454 18.117,17.0891419 18.5313333,17.0891419 C19.482,17.0891419 20.4326666,16.7920533 21.2436667,16.197876 C22.7993334,15.0592041 23.4826667,13.0906982 22.9893333,11.2359925 C24.4703334,10.0291748 25.066,8.03179936 24.4716667,6.1875 C23.877,4.34387207 22.2303334,3.08065794 20.328,2.98028569 C19.646,1.18768306 17.9446666,0 16.0203333,0 C14.0966666,0 12.3953333,1.18768306 11.713,2.98028569 C9.81066667,3.08032227 8.164,4.3435364 7.56933333,6.1875 C6.97466667,8.03179936 7.57033335,10.0291748 9.052,11.2363281 C8.55799996,13.0900268 9.24133333,15.0585327 10.797,16.197876 C11.962,17.0508728 13.4136666,17.291565 14.7403333,16.9199524 L14.7403333,20.3463745 L10.8163333,20.3463745 C10.2616666,17.0844421 7.69000004,14.6103821 4.61066667,14.6103821 C3.90366669,14.6103821 3.33066667,15.1874389 3.33066667,15.8994446 C3.33066667,16.6114502 3.90366669,17.1885071 4.61066667,17.1885071 C6.29666662,17.1885071 7.72699998,18.5195312 8.20033331,20.3463745 L1.28,20.3463745 C0.573000021,20.3463745 -2.84217094e-14,20.923767 -2.84217094e-14,21.635437 C-2.84217094e-14,22.3474426 0.573000021,22.9244995 1.28,22.9244995 L2.70500002,22.9244995 L4.88233335,40.8616028 C5.09966669,42.6508484 6.61233331,44 8.40133333,44 L23.5986667,44 C25.3876667,44 26.9003333,42.6508484 27.1176666,40.8616028 L29.2946667,22.9244995 L30.72,22.9244995 C31.427,22.9244995 32,22.3474426 32,21.635437 C32,20.923767 31.427,20.3467102 30.72,20.3467102 Z M14.7163333,14.1132202 C13.9946667,14.6416016 13.0246666,14.6412659 12.3026667,14.1128845 C11.58,13.5834961 11.28,12.6532898 11.556,11.7972718 C11.8533333,10.874115 11.5293333,9.87072754 10.7496666,9.29971316 C10.0276667,8.77133177 9.728,7.8404541 10.0043333,6.98376465 C10.2803333,6.12741087 11.065,5.55203249 11.9566667,5.55203249 L11.957,5.55203249 C12.921,5.55203249 13.7686666,4.93167116 14.0663334,4.00817871 C14.3423334,3.15283203 15.1273334,2.578125 16.0203333,2.578125 C16.9133333,2.578125 17.6986667,3.15283203 17.9743334,4.00784304 C18.2723333,4.93167116 19.12,5.55203249 20.084,5.55203249 C20.9756667,5.55203249 21.7606666,6.12741087 22.0366667,6.98376465 C22.313,7.84078977 22.0133333,8.77133177 21.291,9.30004883 C20.5113334,9.87106321 20.1876667,10.8747864 20.4853333,11.7972718 C20.7613333,12.6532898 20.461,13.5838318 19.7383334,14.1128845 C19.0163333,14.6416016 18.0463334,14.6416016 17.3246667,14.1132202 C16.9433334,13.8339233 16.4923333,13.6862182 16.0203333,13.6862182 C15.5486667,13.6862182 15.0976666,13.8335876 14.7163333,14.1132202 Z M24.5763333,40.5487366 C24.516,41.0465698 24.0956667,41.421875 23.5986667,41.421875 L8.40133333,41.421875 C7.90433331,41.421875 7.484,41.0465698 7.42366669,40.5487366 L7.22333338,38.9004822 L24.7766666,38.9004822 L24.5763333,40.5487366 Z M25.0893333,36.3223572 L6.91066667,36.3223572 L5.28433331,22.9248352 L26.7156667,22.9248352 L25.0893333,36.3223572 Z" id="形状" fill-rule="nonzero"></path>
                <path d="M17.28,9.36349485 L17.28,7.72463991 C17.28,7.01296999 16.707,6.43557741 16,6.43557741 C15.293,6.43557741 14.72,7.01296999 14.72,7.72463991 L14.72,9.36349485 C14.72,10.0755005 15.293,10.6525574 16,10.6525574 C16.707,10.6525574 17.28,10.0755005 17.28,9.36349485 Z" id="路径" fill-rule="nonzero"></path>
            </g>
        </g>
        <rect id="矩形" x="0" y="0" width="52" height="52"></rect>
    </g>
</svg>