<?xml version="1.0" encoding="UTF-8"?>
<svg width="52px" height="52px" viewBox="0 0 52 52" version="1.1" xmlns="http://www.w3.org/2000/svg" xmlns:xlink="http://www.w3.org/1999/xlink">
    <!-- Generator: Sketch 55.1 (78136) - https://sketchapp.com -->
    <title>12个月</title>
    <desc>Created with Sketch.</desc>
    <g id="12个月" stroke="none" stroke-width="1" fill="none" fill-rule="evenodd">
        <g id="orchid" transform="translate(6.000000, 5.000000)" fill="#333333" fill-rule="nonzero">
            <path d="M34.9588814,19.2544936 C33.4666289,18.0724851 31.1160732,16.7203745 27.7341899,16.1167319 C28.1759845,15.9346468 28.6128545,15.7304681 29.0347613,15.4979234 C31.7022916,14.0278553 33.1122462,11.8043574 33.1122462,9.06755745 C33.1122462,6.63070638 32.0329036,4.2867234 30.0732864,2.46755745 C28.4586762,0.968561702 26.399525,0 24.8277211,0 C24.1020983,0 23.422407,0.302476596 22.9139407,0.851634043 C22.6485798,1.13819574 22.433128,1.48411064 22.267017,1.88722553 C21.4250029,0.771310638 20.564332,0 19.4996685,0 C18.4355733,0 17.5749971,0.771310638 16.7330777,1.88722553 C16.5669667,1.48411064 16.3515149,1.13819574 16.086154,0.851634043 C15.5776877,0.302476596 14.8979964,0 14.1723736,0 C12.600475,0 10.5414185,0.968561702 8.9267136,2.46755745 C6.9670964,4.28681702 5.88775379,6.63070638 5.88775379,9.06755745 C5.88775379,11.8042638 7.2977084,14.0278553 9.96523874,15.4979234 C10.3871455,15.7304681 10.8240155,15.9346468 11.2658101,16.1167319 C7.88392677,16.7203745 5.53337105,18.0724851 4.04111858,19.2544936 C1.51071978,21.2589277 0,23.9845872 0,26.5454809 C0,28.4040596 0.796272058,30.0645447 2.24211953,31.2209021 C3.77509476,32.4470043 6.01948719,33.0950213 8.73285431,33.0950213 L9.74732461,33.0950213 L9.6777171,32.0946298 C9.67686476,32.0820851 9.64144543,31.5450043 9.6476959,30.6818553 C10.1963167,31.2550723 10.817765,31.7675319 11.5013392,32.2050043 C13.3922012,33.414817 15.7616978,34.0861447 18.5526276,34.2089702 L18.5526276,44 L20.4467095,44 L20.4467095,34.2091574 C23.172767,34.0890468 25.4980367,33.4453362 27.366738,32.2874809 C28.1010736,31.8324085 28.766654,31.2917702 29.3498418,30.6826979 C29.3570393,31.5351745 29.3239876,32.0700085 29.3222829,32.0947234 L29.2526754,33.0951149 L30.2671457,33.0951149 C32.9805128,33.0951149 35.2249999,32.4470979 36.7578805,31.2209957 C38.2037279,30.0646383 39,28.4041532 39,26.5455745 C39,23.9845872 37.4892802,21.2590213 34.9588814,19.2544936 Z M16.9267476,15.7964681 C16.8793008,15.7520936 16.8272136,15.7114638 16.7696335,15.6767319 C15.4146073,14.8589872 14.0429131,13.5207319 14.0429131,12.5451489 C14.0429131,12.2850809 14.0856246,12.0383064 14.1600621,11.7962128 C14.5496747,12.3404085 15.0334233,12.8003489 15.4892341,13.2334213 C16.312118,14.0151234 17.0437072,14.711634 17.2975141,15.7965617 L16.9267476,15.7965617 L16.9267476,15.7964681 Z M24.8400326,11.7960255 C24.9144701,12.0381191 24.9571816,12.2849872 24.9571816,12.5449617 C24.9571816,13.5205447 23.5854874,14.8588 22.2304612,15.6765447 C22.1728811,15.7113702 22.1207939,15.7519064 22.0733471,15.7962809 L21.7025806,15.7962809 C21.9563875,14.7114468 22.6879767,14.0148426 23.5108606,13.2331404 C23.9666714,12.8001617 24.45042,12.3402213 24.8400326,11.7960255 Z M24.3111102,2.11574468 C24.4628262,1.95191489 24.6317783,1.87224681 24.8277211,1.87224681 C25.7128256,1.87224681 27.3261099,2.48562553 28.7766926,3.83230638 C29.6885037,4.67879149 31.2181642,6.4844766 31.2181642,9.06746383 C31.2181642,11.1422979 30.2022734,12.7107574 28.1125328,13.862434 C27.4628626,14.2204255 26.762147,14.5069872 26.0611473,14.7386894 C26.5231139,14.0844936 26.8512636,13.3399574 26.8512636,12.5449617 C26.8512636,11.0512085 26.0882327,9.93931915 25.3502983,8.86403404 C24.6160574,7.79417872 23.922634,6.78358298 23.7897642,5.29862979 C23.5965678,3.1427234 24.0899762,2.3545617 24.3111102,2.11574468 Z M19.5004262,1.87224681 C20.0444065,1.87224681 21.096569,3.45924255 21.8557171,4.63844255 C21.8622517,4.90328511 21.877499,5.17786383 21.9031638,5.4636766 C22.0732524,7.36531915 22.923127,8.66022979 23.7004582,9.79486809 C23.5691036,10.5439915 23.0223769,11.1004511 22.1984512,11.883183 C21.2303859,12.802783 20.0556763,13.9189787 19.7752575,15.7963745 L19.2247425,15.7963745 C18.9443237,13.9189787 17.7696141,12.802783 16.8015488,11.883183 C15.9776231,11.1004511 15.4308017,10.5439915 15.2995418,9.79486809 C16.0769677,8.66013617 16.9268423,7.36541277 17.0969309,5.46386383 C17.122501,5.17795745 17.137843,4.90337872 17.1443776,4.63844255 C17.9036204,3.45924255 18.9556882,1.87224681 19.5004262,1.87224681 L19.5004262,1.87224681 Z M7.78193046,9.06746383 C7.78193046,6.48438298 9.31159105,4.67869787 10.2234021,3.83230638 C11.6739848,2.48562553 13.2872691,1.87224681 14.1723736,1.87224681 C14.3683164,1.87224681 14.5373632,1.95191489 14.6889845,2.11574468 C14.9101185,2.3545617 15.4035269,3.14281702 15.2102358,5.29891064 C15.0774607,6.7836766 14.3839426,7.79427234 13.6497017,8.86412766 C12.9117673,9.93941277 12.1487364,11.0513021 12.1487364,12.5450553 C12.1487364,13.3400511 12.4768861,14.0844936 12.9388527,14.738783 C12.237853,14.5070809 11.5371374,14.2205191 10.8874672,13.8625277 C8.79772662,12.7107574 7.78193046,11.1422979 7.78193046,9.06746383 Z M3.43359179,29.7653447 C2.42650841,28.9598638 1.89417667,27.8464766 1.89417667,26.5454809 C1.89417667,24.5474128 3.13953556,22.3680085 5.22567744,20.7155745 C6.94664031,19.3523234 9.14690063,18.414 11.6127112,17.9672596 C7.99652994,21.8206298 7.71563759,28.5953191 7.75086751,31.189634 C5.92857126,31.0633447 4.44881972,30.5773787 3.43359179,29.7653447 Z M19.4993844,32.3590043 C16.6648908,32.3590043 14.3202067,31.7782979 12.5304886,30.6331745 C11.3626924,29.8859234 10.4505025,28.9173617 9.81598508,27.7515489 C9.88663434,27.1007234 9.98484249,26.4111404 10.1211217,25.7070468 C11.127921,20.502783 13.4073539,18.4597787 15.2067318,17.6688085 L18.5524381,17.6688085 L18.5524381,26.8249277 L18.5535746,26.8249277 L20.4465201,26.8249277 L20.4476566,26.8249277 L20.4476566,17.6688085 L23.7938365,17.6688085 C27.5464864,19.3109447 28.78872,24.1330638 29.1807003,27.7537957 C28.0214274,29.8790894 25.4039008,32.3590043 19.4993844,32.3590043 Z M35.5665029,29.7653447 C34.5511803,30.5773787 33.0714287,31.0633447 31.2492272,31.189634 C31.2844571,28.5954128 31.0034701,21.8206298 27.3873835,17.9672596 C29.8531941,18.414 32.0534544,19.3523234 33.7744173,20.7155745 C35.8604644,22.3680085 37.105918,24.5474128 37.105918,26.5454809 C37.105918,27.8464766 36.5735863,28.9598638 35.5665029,29.7653447 Z" id="形状"></path>
        </g>
        <rect id="矩形" fill-opacity="0" fill="#D8D8D8" x="0" y="0" width="52" height="52"></rect>
    </g>
</svg>