<?xml version="1.0" encoding="UTF-8"?>
<svg width="60px" height="60px" viewBox="0 0 60 60" version="1.1" xmlns="http://www.w3.org/2000/svg" xmlns:xlink="http://www.w3.org/1999/xlink">
    <!-- Generator: Sketch 51.2 (57519) - http://www.bohemiancoding.com/sketch -->
    <title>鲜花卡兑换</title>
    <desc>Created with Sketch.</desc>
    <defs></defs>
    <g id="我" stroke="none" stroke-width="1" fill="none" fill-rule="evenodd">
        <g id="我-个人中心" transform="translate(-437.000000, -1115.000000)">
            <rect fill="#FFFFFF" x="0" y="0" width="750" height="1540"></rect>
            <g id="Group-6-Copy" transform="translate(407.000000, 1115.000000)" stroke="#000000" stroke-width="1.5">
                <g id="Group-7" transform="translate(30.000000, 0.000000)">
                    <g id="鲜花卡兑换" transform="translate(4.500000, 10.500000)">
                        <rect id="Combined-Shape" fill="#FFFFFF" fill-rule="evenodd" transform="translate(25.986842, 20.703030) rotate(90.000000) translate(-25.986842, -20.703030) " x="7" y="-4.34090909" width="37.9736842" height="50.0878788" rx="1.75438596"></rect>
                        <path d="M33.6719045,31.5799164 L31.7385521,32.628619 C30.4610129,33.3215908 28.8635982,32.8477054 28.1706264,31.5701662 C27.8913045,31.0552178 27.7917942,30.4617893 27.8878603,29.8838932 L28.2780599,27.5366055 L26.5503413,25.7990128 C25.5255782,24.7683932 25.5303259,23.1021763 26.5609456,22.0774133 C26.9584814,21.6821364 27.4718598,21.4241406 28.0262692,21.3410218 L30.3383252,20.994391 L31.2979389,18.9882522 C31.9250911,17.6771472 33.4963589,17.1226939 34.8074639,17.7498461 C35.3495516,18.0091475 35.7865686,18.4461646 36.0458701,18.9882522 L37.0054838,20.994391 L39.3175398,21.3410218 C40.7548572,21.5565089 41.7453464,22.8963718 41.5298592,24.3336892 C41.4467404,24.8880986 41.1887445,25.4014769 40.7934677,25.7990128 L39.0657491,27.5366055 L39.4559486,29.8838932 C39.6942797,31.3175997 38.7252365,32.673054 37.29153,32.9113851 C36.7136338,33.0074512 36.1202053,32.907941 35.6052569,32.628619 L33.6719045,31.5799164 Z" id="Star" transform="translate(33.672083, 25.219567) rotate(-30.000000) translate(-33.672083, -25.219567) "></path>
                        <path d="M1.875,11.7656566 L50.625,11.7656566" id="Line-7" stroke-linecap="square"></path>
                    </g>
                </g>
            </g>
        </g>
    </g>
</svg>