<?xml version="1.0" encoding="UTF-8"?>
<svg width="60px" height="60px" viewBox="0 0 60 60" version="1.1" xmlns="http://www.w3.org/2000/svg" xmlns:xlink="http://www.w3.org/1999/xlink">
    <!-- Generator: Sketch 51.2 (57519) - http://www.bohemiancoding.com/sketch -->
    <title>优惠券</title>
    <desc>Created with Sketch.</desc>
    <defs></defs>
    <g id="我" stroke="none" stroke-width="1" fill="none" fill-rule="evenodd">
        <g id="我-个人中心" transform="translate(-69.000000, -1283.000000)">
            <rect fill="#FFFFFF" x="0" y="0" width="750" height="1540"></rect>
            <g id="Group-6" transform="translate(35.000000, 1283.000000)" stroke="#333333">
                <g id="优惠券" transform="translate(34.000000, 0.000000)">
                    <g id="Group" transform="translate(1.764706, 1.764706)">
                        <path d="M34.8298434,1.72695028 C33.7828556,0.679536823 32.0852723,0.678335863 31.0368036,1.72426688 L1.72292512,31.0368036 C0.679943861,32.0864891 0.681143124,33.7816347 1.72560858,34.8298434 L5.42741154,38.5303046 C9.01547613,36.8277481 13.2865916,37.566089 16.0948746,40.374372 C18.9031575,43.1826549 19.6414985,47.4537704 17.9389419,51.041835 L21.6394031,54.743638 C22.6863909,55.7910515 24.3839743,55.7922524 25.432443,54.7463214 L54.7476631,25.4337847 C55.7906444,24.3840992 55.7894451,22.6889536 54.7449797,21.6407449 L51.9139524,18.8097176 C48.212295,21.0715726 43.44316,20.5040078 40.3757298,17.4365776 C37.3082996,14.3691474 36.7407347,9.60001239 39.0025897,5.89835494 L34.8298434,1.72695028 Z" id="Shape" stroke-width="1.76470588" fill-rule="nonzero"></path>
                        <path d="M15.8332329,33.0201679 L32.0550943,16.7983064" id="Line-11" stroke-width="1.76470588" stroke-linecap="round" stroke-linejoin="round" fill-rule="nonzero"></path>
                        <path d="M24.6567623,41.8436973 L40.8786237,25.6218358" id="Line-11" stroke-width="1.76470588" stroke-linecap="round" stroke-linejoin="round" fill-rule="nonzero"></path>
                    </g>
                </g>
            </g>
        </g>
    </g>
</svg>