<?xml version="1.0" encoding="UTF-8"?>
<svg width="60px" height="60px" viewBox="0 0 60 60" version="1.1" xmlns="http://www.w3.org/2000/svg" xmlns:xlink="http://www.w3.org/1999/xlink">
    <!-- Generator: Sketch 51.2 (57519) - http://www.bohemiancoding.com/sketch -->
    <title>帮助中心</title>
    <desc>Created with Sketch.</desc>
    <defs></defs>
    <g id="我" stroke="none" stroke-width="1" fill="none" fill-rule="evenodd">
        <g id="我-个人中心" transform="translate(-437.000000, -1284.000000)">
            <rect fill="#FFFFFF" x="0" y="0" width="750" height="1540"></rect>
            <g id="Group-6-Copy" transform="translate(407.000000, 1284.000000)">
                <g id="Group-16" transform="translate(30.000000, 0.000000)">
                    <g id="帮助中心" transform="translate(4.500000, 4.500000)">
                        <path d="M25.5,49.8566971 L30.0470553,44.625 L30.3888889,44.625 L47.5,44.625 C48.1903559,44.625 48.75,44.0653559 48.75,43.375 L48.75,3.5 C48.75,2.80964406 48.1903559,2.25 47.5,2.25 L3.5,2.25 C2.80964406,2.25 2.25,2.80964406 2.25,3.5 L2.25,43.375 C2.25,44.0653559 2.80964406,44.625 3.5,44.625 L20.9529447,44.625 L25.5,49.8566971 Z" id="Rectangle-8" stroke="#000000" stroke-width="1.5"></path>
                        <path d="M25.294464,13.5 C27.1792765,13.5 28.6812364,14.0060952 29.829794,15.0778262 C30.9194513,16.0900166 31.479005,17.489221 31.479005,19.2754393 C31.479005,20.6151031 31.0961524,21.776145 30.3598976,22.7585651 C30.0653956,23.1158088 29.2702403,23.8898367 27.9744318,25.0508786 C27.3265275,25.6165145 26.8847745,26.15238 26.5902726,26.6882455 C26.2074201,27.3431922 26.0307189,28.0576795 26.0307189,28.8614778 L26.0307189,29.5461948 L23.6747033,29.5461948 L23.6747033,28.8614778 C23.6747033,27.8790577 23.8514045,27.0157188 24.2048068,26.2714612 C24.6171095,25.378352 25.588966,24.2470804 27.1792765,22.8181057 C27.6504796,22.3417808 28.003882,21.9845371 28.1805831,21.7463747 C28.769587,21.0021171 29.064089,20.2280891 29.064089,19.3945205 C29.064089,18.2037083 28.7106866,17.2808288 28.0627823,16.6258821 C27.3854279,15.9113948 26.4135714,15.5839214 25.1766632,15.5839214 C23.7041535,15.5839214 22.6144963,16.0602463 21.9076916,17.0426664 C21.2597873,17.8762349 20.9358352,19.0075066 20.9358352,20.4662516 L18.6092698,20.4662516 C18.6092698,18.3823301 19.1688235,16.715193 20.3468313,15.4648402 C21.5248391,14.1549467 23.17405,13.5 25.294464,13.5 Z M24.8527111,31.6301162 C25.3533644,31.6301162 25.7951173,31.7789677 26.1485197,32.1362114 C26.4724718,32.4636848 26.649173,32.8804691 26.649173,33.3865643 C26.649173,33.9224298 26.4724718,34.339214 26.1190695,34.6666874 C25.7656671,34.9941608 25.3533644,35.1727826 24.8527111,35.1727826 C24.3520578,35.1727826 23.9397551,34.9941608 23.5863527,34.6666874 C23.2329504,34.3094437 23.0856994,33.8926595 23.0856994,33.3865643 C23.0856994,32.8804691 23.2329504,32.4636848 23.5863527,32.1362114 C23.9397551,31.7789677 24.3520578,31.6301162 24.8527111,31.6301162 Z" id="？" fill="#000000" fill-rule="evenodd"></path>
                    </g>
                </g>
            </g>
        </g>
    </g>
</svg>