<?xml version="1.0" encoding="UTF-8"?>
<svg width="52px" height="52px" viewBox="0 0 52 52" version="1.1" xmlns="http://www.w3.org/2000/svg" xmlns:xlink="http://www.w3.org/1999/xlink">
    <!-- Generator: Sketch 55.1 (78136) - https://sketchapp.com -->
    <title>6个月</title>
    <desc>Created with Sketch.</desc>
    <g id="6个月" stroke="none" stroke-width="1" fill="none" fill-rule="evenodd">
        <g id="lily" transform="translate(8.000000, -0.000000)" fill="#333333">
            <g id="形状">
                <path d="M30.343277,25.6280083 C29.5124431,24.9360996 28.4572128,24.5549793 27.37207,24.5549793 C26.2790554,24.5549793 25.2366297,24.9350622 24.4132478,25.6155602 C23.3478367,25.2786307 22.0259125,25.3952282 20.8787405,25.9815353 C20.1725948,26.3425311 19.2200117,27.0445021 18.5322332,28.3636929 C18.3760583,27.6698133 17.8831837,25.1596473 17.8058309,23.3954357 C17.8530612,21.7726141 19.7228571,18.2167012 24.1982974,17.6578838 C24.2007114,18.233195 24.3140641,18.8084025 24.53993,19.3572614 C25.0043615,20.4854772 25.8853644,21.3674274 27.0209913,21.8407676 L32.3785889,24.0736515 L31.9197201,20.8678423 L34.4899942,20.0048755 L33.3210962,17.583195 L35.963895,15.6701245 L30.6064023,13.4372407 C30.0344956,13.1988589 29.4318367,13.0780083 28.8152187,13.0780083 C27.0819708,13.0780083 25.5150787,14.0284232 24.7242332,15.5283195 C21.6366297,15.6992739 19.406414,16.9901452 17.9362915,18.5669087 C18.2219825,15.9489627 18.8506706,13.5100622 19.7659942,11.6599585 C20.2243382,11.8082988 20.7057726,11.8850622 21.1971778,11.8850622 L21.1972828,11.8850622 C22.6942741,11.8850622 24.1036268,11.1646266 24.967102,9.95788382 L28.3246531,5.2659751 L25.0580991,5.02022822 L24.7575044,2.35373444 L22.113551,2.96192946 L20.7907872,1.77635684e-14 L17.4332362,4.69180498 C16.1098426,6.54149378 16.3811545,9.03890041 17.9668338,10.5772822 C17.301516,11.8782158 16.7682332,13.4217842 16.3827289,15.1057054 C15.4811545,14.2810166 14.4570962,13.7755187 13.6791603,13.4804979 C14.1974344,11.5869295 13.4309388,9.50010373 11.6604315,8.41358921 L6.72087464,5.38205394 L6.66797668,8.61939834 L3.99316618,9.07562241 L4.76553936,11.6477178 L1.85321283,13.130083 L6.79276968,16.1615145 C7.52462974,16.6105809 8.36490962,16.848029 9.22313703,16.848029 C9.22324198,16.848029 9.22324198,16.848029 9.22324198,16.848029 C10.562484,16.848029 11.8018076,16.2881743 12.6690612,15.3225104 C13.545551,15.6150415 15.1334344,16.3349585 15.8996152,17.8588174 C15.6582157,19.7789419 15.592828,21.7942946 15.722344,23.7788382 C14.3269504,22.7775934 12.6002099,22.4177386 10.7215977,22.7870332 C10.0723382,21.0224066 8.3678484,19.7920124 6.39162682,19.7920124 C6.2229621,19.7920124 6.05209329,19.8012448 5.88353353,19.8196058 L0.104116618,20.4467842 L2.08369679,23.0263485 L0.263650146,25.0169087 L2.47738776,26.5697095 L1.1109621,29.5123444 L6.89069388,28.8852697 C9.07630321,28.648029 10.7397551,26.9297718 10.9721283,24.8540456 C13.3350087,24.3255187 15.2475219,25.3956432 16.2759883,27.8428423 C16.7267755,30.0673237 17.3933528,32.4159751 18.1022274,34.8764523 C17.8984023,34.7940871 17.690484,34.7246888 17.4782624,34.6725104 C16.2403032,34.3682573 14.9319184,34.5793568 13.5788222,35.2960581 C12.7585889,34.6268672 11.7237201,34.2532158 10.6420408,34.2532158 C9.54272886,34.2532158 8.47721283,34.6429461 7.64165598,35.3505187 L3.22635569,39.0896266 L6.33306122,40.1165975 L5.96550437,42.7747925 L8.67967347,42.8235477 L9.2301691,46.0153527 L13.6455743,42.2761411 C15.2241166,40.9393154 15.662414,38.7691909 14.8671603,36.9783195 C15.6328163,36.6295643 16.3382274,36.5301867 16.9718484,36.6858921 C18.0858542,36.959751 18.8053294,37.9592324 19.1607114,38.5938797 C20.0919883,41.9569502 21.0180175,45.6893154 21.6601399,49.9635892 L23.7364898,49.6588174 C22.8534927,43.1721992 19.9132478,33.5869295 19.7595918,33.0475104 C19.6418309,30.4257261 20.3793586,28.5726141 21.8430787,27.8242739 C22.264688,27.6087137 22.6837784,27.5178423 23.0511254,27.5057054 C22.8106706,28.1344398 22.7133761,28.8134855 22.7729913,29.5030083 C22.8778426,30.7165975 23.4546822,31.8172199 24.3971895,32.6020747 L28.8433469,36.3051867 L29.3672886,33.1091286 L32.0809329,33.0384855 L31.6912303,30.3832988 L34.7893294,29.3311203 L30.343277,25.6280083 L30.343277,25.6280083 Z M26.4965248,16.6733402 C26.8907405,15.7495851 27.8008163,15.1528008 28.8151137,15.1528008 C29.1500292,15.1528008 29.4782274,15.2187759 29.7906822,15.3490664 L31.7354169,16.1595436 L30.6776676,16.9252075 L31.5784023,18.7912863 L29.5976676,19.4563278 L29.7812362,20.7396266 L27.8366064,19.9291494 C27.2175743,19.6712656 26.7373994,19.1904564 26.4843499,18.5756224 C26.2311953,17.9605809 26.2356035,17.2850622 26.4965248,16.6733402 L26.4965248,16.6733402 Z M11.3629854,13.5985477 C10.900758,14.3342324 10.1008863,14.773444 9.22324198,14.7733403 C8.75671137,14.7732365 8.29910204,14.6437759 7.90016327,14.3989627 L6.10709038,13.2986515 L7.27273469,12.7053942 L6.67763265,10.7232365 L8.73897376,10.3716805 L8.76006997,9.07582988 L10.5531429,10.1762448 C11.7310671,10.8989627 12.0942157,12.4343361 11.3629854,13.5985477 L11.3629854,13.5985477 Z M6.66178426,26.8228216 L4.56391837,27.0505187 L5.11084548,25.8727178 L3.40478134,24.6760373 L4.80741691,23.1421162 L4.01499708,22.1095436 L6.11286297,21.8819502 C6.20553936,21.871888 6.29926531,21.866805 6.39173178,21.866805 C7.67398251,21.866805 8.74674052,22.8187759 8.88685714,24.0811203 C9.03820408,25.4432573 8.04006997,26.6733402 6.66178426,26.8228216 L6.66178426,26.8228216 Z M12.2798834,40.7006224 L10.6772012,42.0578838 L10.456898,40.7803942 L8.36522449,40.7429461 L8.64850146,38.6943983 L7.40476968,38.2832988 L9.00766181,36.9260373 C9.46306706,36.5403527 10.0434752,36.3279046 10.6421458,36.3279046 C11.378309,36.3279046 12.0749038,36.6443983 12.5532945,37.1961618 C13.4554985,38.2368257 13.3328047,39.8089212 12.2798834,40.7006224 L12.2798834,40.7006224 Z M19.1470671,5.88973029 L20.3658192,4.18661826 L20.8953236,5.3723029 L22.9327347,4.90363071 L23.1644781,6.95850622 L24.4719184,7.05684647 L23.2532711,8.75995851 C22.7825423,9.41773859 22.0138426,9.81058091 21.1970729,9.8104772 C20.6763848,9.8104772 20.1754286,9.6526971 19.7481516,9.35404564 C18.6160933,8.56275934 18.3464606,7.00860996 19.1470671,5.88973029 L19.1470671,5.88973029 Z M29.6646297,31.0260373 L27.573481,31.0804979 L27.3637784,32.359751 L25.7497609,31.0156639 C25.236105,30.5878631 24.9217609,29.9879668 24.8645598,29.326556 C24.8074636,28.6651452 25.0143324,28.0212656 25.447172,27.5135892 C25.9260875,26.9518672 26.6277201,26.629668 27.37207,26.629668 C27.9629738,26.629668 28.5377143,26.8374481 28.9906006,27.2145228 L30.6045131,28.55861 L29.3642449,28.9797718 L29.6646297,31.0260373 L29.6646297,31.0260373 Z" fill-rule="nonzero"></path>
            </g>
        </g>
        <rect id="矩形" fill-opacity="0" fill="#D8D8D8" x="0" y="0" width="52" height="52"></rect>
    </g>
</svg>