<?xml version="1.0" encoding="UTF-8"?>
<svg width="52px" height="52px" viewBox="0 0 52 52" version="1.1" xmlns="http://www.w3.org/2000/svg" xmlns:xlink="http://www.w3.org/1999/xlink">
    <!-- Generator: Sketch 55.1 (78136) - https://sketchapp.com -->
    <title>3个月</title>
    <desc>Created with Sketch.</desc>
    <g id="3个月" stroke="none" stroke-width="1" fill="none" fill-rule="evenodd">
        <g id="beech" transform="translate(6.000000, 2.000000)" fill="#333333" fill-rule="nonzero">
            <g id="形状" transform="translate(0.000000, 0.000000)">
                <path d="M24.2013033,29.1693474 C23.3273183,31.3438989 23.9479699,33.9154863 25.8547368,36.1950316 L20.9742356,41.1145768 L20.9742356,24.6180379 C24.9257143,24.3618695 27.9350376,22.5840505 29.1251128,19.7505347 C30.0543358,17.5381895 29.8738847,14.8568589 28.5888722,11.7810189 C27.2067168,8.47255579 24.5496742,4.76069053 20.6916291,0.748597895 L19.9718296,-1.70530257e-13 L19.2519298,0.748597895 C15.3938847,4.76069053 12.7368421,8.47255579 11.3546867,11.7810189 C10.0697744,14.8568589 9.88932331,17.5382905 10.8184461,19.7505347 C12.0085213,22.5840505 15.0178446,24.3618695 18.9693233,24.6180379 L18.9693233,41.1145768 L14.0888221,36.1950316 C15.9956892,33.9154863 16.6162406,31.3438989 15.7422556,29.1693474 C14.7275188,26.6445474 11.3520802,23.6009432 1.03408521,23.4388547 L5.68434189e-14,23.4225853 L0.0160401003,24.4649432 C0.0937343358,29.4940295 0.85443609,33.3630316 2.27709273,35.9645305 C3.95919799,39.0406737 6.17263158,39.6867032 7.73333333,39.6869053 C7.73373434,39.6869053 7.73393484,39.6869053 7.73423559,39.6869053 C9.37503759,39.6869053 11.0996491,38.9597305 12.6705764,37.6237137 L18.9693233,43.9728505 L18.9693233,47.9362358 L20.9743358,47.9362358 L20.9743358,43.9728505 L27.2730827,37.6237137 C28.84401,38.9597305 30.5688221,39.6869053 32.2101253,39.6869053 C33.7707268,39.6869053 35.9842607,39.0411789 37.6665664,35.9647326 C39.0891228,33.3631326 39.8498246,29.4940295 39.927619,24.4649432 L39.9436591,23.4225853 L38.9094737,23.4388547 C28.5914787,23.6008421 25.2160401,26.6445474 24.2013033,29.1693474 Z M7.73413534,37.6657516 C7.73403509,37.6657516 7.73373434,37.6657516 7.73373434,37.6657516 C4.43328321,37.6652463 2.3356391,33.1366737 2.0485213,25.4875958 C8.55278195,25.7366905 12.8422055,27.3362526 13.88401,29.9281516 C14.4548371,31.3485474 13.9981955,33.10656 12.6651629,34.7598821 L9.43408521,31.5029558 L8.0162406,32.9321432 L11.2475188,36.1892716 C10.0815038,37.1467453 8.85884712,37.6657516 7.73413534,37.6657516 L7.73413534,37.6657516 Z M12.6648622,18.9625263 C11.9546867,17.2716126 12.1356391,15.1192926 13.2025063,12.5652884 C14.4022055,9.69357474 16.677594,6.45059368 19.9717293,2.91546947 C23.2658647,6.45059368 25.5413534,9.69357474 26.7409524,12.5652884 C27.8079198,15.1192926 27.9887719,17.2717137 27.2785965,18.9625263 C26.4055138,21.0413811 24.0845113,22.3617347 20.9741353,22.5934484 L20.9741353,16.0892968 L18.9691228,16.0892968 L18.9691228,22.5934484 C15.8589474,22.3617347 13.5379449,21.0413811 12.6648622,18.9625263 Z M32.2101253,37.6657516 C31.0851128,37.6657516 29.8621554,37.1467453 28.6960401,36.1891705 L31.9273183,32.9320421 L30.5094737,31.5028547 L27.2782957,34.7597811 C25.9452632,33.1063579 25.4886216,31.3484463 26.0594486,29.9280505 C27.1012531,27.3361516 31.3906767,25.7365895 37.8949373,25.4874947 C37.6079198,33.1371789 35.5102757,37.6657516 32.2101253,37.6657516 L32.2101253,37.6657516 Z"></path>
            </g>
        </g>
        <rect id="矩形" fill-opacity="0" fill="#D8D8D8" x="0" y="0" width="52" height="52"></rect>
    </g>
</svg>