<?xml version="1.0" encoding="UTF-8"?>
<svg width="52px" height="52px" viewBox="0 0 52 52" version="1.1" xmlns="http://www.w3.org/2000/svg" xmlns:xlink="http://www.w3.org/1999/xlink">
    <!-- Generator: Sketch 55.1 (78136) - https://sketchapp.com -->
    <title>团购</title>
    <desc>Created with Sketch.</desc>
    <g id="团购" stroke="none" stroke-width="1" fill="none" fill-rule="evenodd">
        <g>
            <rect id="矩形备份-2" x="0" y="0" width="52" height="52"></rect>
            <g id="group" transform="translate(3.000000, 14.000000)" fill="#333333" fill-rule="nonzero" stroke="#333333" stroke-width="0.7">
                <path d="M39.7363636,12.7392857 C41.0818182,11.8026398 41.9727273,10.2445652 41.9727273,8.48835404 C41.9727273,5.61537267 39.6272727,3.29177019 36.7272727,3.29177019 C33.8272727,3.29177019 31.4818182,5.61537267 31.4818182,8.48835404 C31.4818182,10.2445652 32.3636364,11.8026398 33.7181818,12.7392857 C32.5636364,13.135559 31.5090909,13.7479814 30.6181818,14.540528 C29.3909091,13.5048137 27.9454545,12.7122671 26.3636364,12.2439441 C28.2818182,11.0911491 29.5727273,8.99270186 29.5727273,6.6060559 C29.5727273,2.96754658 26.6,0.022515528 22.9272727,0.022515528 C19.2545455,0.022515528 16.2818182,2.9765528 16.2818182,6.6060559 C16.2818182,8.99270186 17.5636364,11.0911491 19.4909091,12.2439441 C17.9272727,12.7122671 16.5,13.4958075 15.2818182,14.5135093 C14.3909091,13.7389752 13.3545455,13.135559 12.2181818,12.7482919 C13.5636364,11.811646 14.4545455,10.2535714 14.4545455,8.49736025 C14.4545455,5.62437888 12.1090909,3.3007764 9.20909091,3.3007764 C6.30909091,3.3007764 3.96363636,5.62437888 3.96363636,8.49736025 C3.96363636,10.2535714 4.84545455,11.811646 6.2,12.7482919 C2.59090909,13.9821429 0,17.3774845 0,21.367236 L0,21.961646 C0,21.9796584 0.0181818182,21.9976708 0.0363636364,21.9976708 L11.1545455,21.9976708 C11.0909091,22.4930124 11.0545455,23.0063665 11.0545455,23.5197205 L11.0545455,24.1321429 C11.0545455,26.7799689 13.2181818,28.9234472 15.8909091,28.9234472 L29.9818182,28.9234472 C32.6545455,28.9234472 34.8181818,26.7799689 34.8181818,24.1321429 L34.8181818,23.5197205 C34.8181818,23.0063665 34.7818182,22.4930124 34.7181818,21.9976708 L45.9090909,21.9976708 C45.9272727,21.9976708 45.9454545,21.9796584 45.9454545,21.961646 L45.9454545,21.367236 C45.9272727,17.3684783 43.3454545,13.9731366 39.7363636,12.7392857 Z M32.9363636,8.47934783 C32.9363636,6.40791925 34.6363636,4.72375776 36.7272727,4.72375776 C38.8181818,4.72375776 40.5181818,6.40791925 40.5181818,8.47934783 C40.5181818,10.5237578 38.8545455,12.1899068 36.8,12.2349379 C36.7727273,12.2349379 36.7545455,12.2349379 36.7272727,12.2349379 C36.7,12.2349379 36.6818182,12.2349379 36.6545455,12.2349379 C34.5909091,12.198913 32.9363636,10.532764 32.9363636,8.47934783 Z M17.7181818,6.6060559 C17.7181818,3.76909938 20.0454545,1.46350932 22.9090909,1.46350932 C25.7727273,1.46350932 28.1,3.76909938 28.1,6.6060559 C28.1,9.3439441 25.9272727,11.5864907 23.2090909,11.7395963 C23.1090909,11.7395963 23.0090909,11.7395963 22.9090909,11.7395963 C22.8090909,11.7395963 22.7090909,11.7395963 22.6090909,11.7395963 C19.8909091,11.5864907 17.7181818,9.3439441 17.7181818,6.6060559 Z M5.39090909,8.47934783 C5.39090909,6.40791925 7.09090909,4.72375776 9.18181818,4.72375776 C11.2727273,4.72375776 12.9727273,6.40791925 12.9727273,8.47934783 C12.9727273,10.5237578 11.3090909,12.1899068 9.25454545,12.2349379 C9.22727273,12.2349379 9.20909091,12.2349379 9.18181818,12.2349379 C9.15454545,12.2349379 9.13636364,12.2349379 9.10909091,12.2349379 C7.05454545,12.198913 5.39090909,10.532764 5.39090909,8.47934783 Z M11.4090909,20.5476708 L1.47272727,20.5476708 C1.88181818,16.7110248 5.15454545,13.7029503 9.12727273,13.6759317 C9.14545455,13.6759317 9.16363636,13.6759317 9.18181818,13.6759317 C9.2,13.6759317 9.21818182,13.6759317 9.23636364,13.6759317 C11.1272727,13.6849379 12.8545455,14.3784161 14.1909091,15.5041925 C12.8818182,16.9091615 11.9090909,18.638354 11.4090909,20.5476708 Z M33.3454545,24.1321429 C33.3454545,25.9784161 31.8272727,27.4824534 29.9636364,27.4824534 L15.8727273,27.4824534 C14.0090909,27.4824534 12.4909091,25.9784161 12.4909091,24.1321429 L12.4909091,23.5197205 C12.4909091,17.9268634 17,13.3517081 22.6090909,13.1895963 C22.7090909,13.1986025 22.8181818,13.1986025 22.9181818,13.1986025 C23.0181818,13.1986025 23.1272727,13.1986025 23.2272727,13.1895963 C28.8363636,13.3517081 33.3454545,17.9268634 33.3454545,23.5197205 L33.3454545,24.1321429 L33.3454545,24.1321429 Z M34.4272727,20.5476708 C33.9272727,18.6473602 32.9727273,16.9451863 31.6727273,15.5402174 C33.0181818,14.3874224 34.7636364,13.6939441 36.6727273,13.6759317 C36.6909091,13.6759317 36.7090909,13.6759317 36.7272727,13.6759317 C36.7454545,13.6759317 36.7636364,13.6759317 36.7818182,13.6759317 C40.7545455,13.7029503 44.0272727,16.7110248 44.4363636,20.5476708 L34.4272727,20.5476708 Z" id="形状"></path>
            </g>
        </g>
    </g>
</svg>