<?xml version="1.0" encoding="UTF-8"?>
<svg width="52px" height="52px" viewBox="0 0 52 52" version="1.1" xmlns="http://www.w3.org/2000/svg" xmlns:xlink="http://www.w3.org/1999/xlink">
    <!-- Generator: Sketch 55.1 (78136) - https://sketchapp.com -->
    <title>挚爱</title>
    <desc>Created with Sketch.</desc>
    <g id="挚爱" stroke="none" stroke-width="1" fill="none" fill-rule="evenodd">
        <g id="rose" transform="translate(13.000000, 3.000000)" fill="#333333" fill-rule="nonzero">
            <path d="M24.4266566,18.3885721 C22.4348373,13.1008595 24.0149433,8.01827487 24.6897185,5.84787337 C24.7387515,5.69013284 24.7834017,5.54647795 24.8222994,5.41765497 L25.3360051,3.71319903 L23.6725338,4.25423693 C23.5877988,4.28184852 22.5694271,4.61542636 20.9951649,5.22661262 C20.9748029,4.59453111 20.9742551,3.79752632 21.0430109,3.02300259 L21.1351419,1.98523594 L20.1153093,2.00622448 C20.0277437,2.00809013 17.941876,2.05939545 15.444021,2.84912421 C15.0368732,2.97785391 14.6425087,3.11927002 14.2608361,3.27243972 C11.687925,0.891872983 7.58576709,0.19897135 7.40205294,0.168934418 L6.36614986,0 L6.34514874,1.07144159 C6.30259865,3.24585423 5.46547574,4.73566737 4.94711331,5.45431495 C3.54551682,4.75833499 2.50057413,4.32289277 2.39282925,4.27839707 L0.612482122,3.54239897 L1.17759487,5.41765497 C1.2164926,5.54647795 1.26114281,5.69013284 1.31017586,5.84787337 C1.98495097,8.01827487 3.56505699,13.1008595 1.57323771,18.3885721 C0.311983486,21.7367571 -1.08897384,26.598449 1.29620555,30.1471911 C2.12711943,31.3834627 3.36116351,32.358357 4.96656217,33.0520049 C4.63337484,33.933337 3.95768663,35.4093444 3.24565735,36.4792001 L2.27586214,37.936551 L4.00078458,37.936551 C6.87099853,37.936551 8.70585726,37.2051237 9.73975153,36.5915122 C10.7808592,35.9735163 11.4980931,35.1896643 11.8149361,34.3543205 C11.9048757,34.3573988 11.9960023,34.3596376 12.0869463,34.3619696 L12.0869463,44 L13.9131306,44 L13.9131306,34.3618763 C14.0039833,34.3595443 14.0951099,34.3573055 14.1851408,34.3542272 C14.5019838,35.189571 15.2191264,35.973423 16.2603254,36.5914189 C17.2941284,37.2050305 19.1290784,37.9364577 21.9992924,37.9364577 L23.7242148,37.9364577 L22.7544196,36.4791069 C22.0423903,35.4091578 21.3667934,33.9332437 21.0336061,33.0519117 C22.6389134,32.3582638 23.8730488,31.3834627 24.7038714,30.1470979 C27.0889595,26.598449 25.6880021,21.7367571 24.4266566,18.3885721 L24.4266566,18.3885721 Z M19.163502,3.95508029 C19.1435966,4.73566737 19.1700762,5.45151647 19.1991126,5.95048401 C17.8103907,6.53051394 16.1964089,7.25205327 14.5016186,8.10456109 C13.4466318,8.63524463 12.4488047,9.17143184 11.5076806,9.71302943 C11.113864,9.33299695 10.6696446,8.96061363 10.1950193,8.60017045 C12.5598367,5.12064382 17.1484902,4.19649513 19.163502,3.95508029 L19.163502,3.95508029 Z M8.08888088,2.22730376 C8.478406,2.32795546 8.95914903,2.46759921 9.48335525,2.654164 C10.6456303,3.06777814 11.6426356,3.57812613 12.4288993,4.15685011 C10.8677856,5.05376034 9.60424865,6.19702938 8.68604316,7.55046366 C7.99044954,7.10345442 7.2748592,6.68620226 6.58684424,6.30915482 C7.14894379,5.46280364 7.84992465,4.08408984 8.08888088,2.22730376 L8.08888088,2.22730376 Z M5.28806193,7.71995777 C7.23121339,8.75380656 8.78520497,9.77067795 9.85690126,10.7053676 C7.59855038,12.1254055 5.7256157,13.5798646 4.24841518,15.0606293 C4.64058827,11.7650556 4.05429178,8.82675339 3.50634516,6.82136845 C4.03438637,7.07407046 4.64442325,7.37751809 5.28806193,7.71995777 Z M5.65877735,35.9723036 C5.86641451,35.5712826 6.06985145,35.1485268 6.2595007,34.7218531 C6.43746236,34.3215783 6.58328318,33.9652396 6.69778494,33.6523704 C7.6225647,33.9051657 8.64650627,34.0923835 9.76577466,34.2125312 C9.15902491,34.9045 7.84873763,35.6988929 5.65877735,35.9723036 L5.65877735,35.9723036 Z M17.1775265,34.9781931 C16.7610651,34.7310881 16.4479658,34.4659795 16.2281846,34.2132775 C17.349827,34.0931298 18.3758687,33.9056321 19.302292,33.6523704 C19.4167937,33.9652396 19.5626146,34.3215783 19.7405762,34.7218531 C19.9295863,35.1472208 20.1323841,35.5686707 20.3393821,35.9685723 C19.0997681,35.8104587 18.0096274,35.4721234 17.1775265,34.9781931 L17.1775265,34.9781931 Z M23.1982737,29.0911411 C21.6739576,31.359116 18.2427398,32.5091014 13.0000385,32.5091014 C7.75733711,32.5091014 4.32611932,31.359116 2.80180324,29.0911411 C0.983380165,26.3855785 2.06521178,22.3652006 3.1381864,19.434361 C6.81849573,13.0124278 18.2253911,8.24886895 22.5462346,6.63172534 C21.7713845,9.40016028 20.8527225,14.0954364 22.72237,19.0587128 C23.8354294,22.0133394 25.0956792,26.2680427 23.1982737,29.0911411 L23.1982737,29.0911411 Z" id="形状"></path>
        </g>
        <rect id="矩形" fill-opacity="0" fill="#D8D8D8" x="0" y="0" width="52" height="52"></rect>
    </g>
</svg>