<?xml version="1.0" encoding="UTF-8"?>
<svg width="245px" height="245px" viewBox="0 0 245 245" version="1.1" xmlns="http://www.w3.org/2000/svg" xmlns:xlink="http://www.w3.org/1999/xlink">
    <!-- Generator: Sketch 55.1 (78136) - https://sketchapp.com -->
    <title>没有礼物</title>
    <desc>Created with Sketch.</desc>
    <g id="没有礼物" stroke="none" stroke-width="1" fill="none" fill-rule="evenodd">
        <g id="withered" transform="translate(77.000000, 47.000000)" fill-rule="nonzero">
            <g id="编组" transform="translate(3.000000, 93.000000)">
                <polygon id="路径" fill="#F69249" points="6.45195294 10.2593191 69.6031843 10.2593191 60.1067608 55.7027234 15.9486745 55.7027234"></polygon>
                <path d="M5.18886275,0.161148936 L70.8662745,0.161148936 C73.6448941,0.161148936 75.9180392,2.43302128 75.9180392,5.21008511 L75.9180392,5.21038298 C75.9180392,7.98744681 73.6448941,10.2593191 70.8662745,10.2593191 L5.18886275,10.2593191 C2.41024314,10.2593191 0.137098039,7.98744681 0.137098039,5.21038298 L0.137098039,5.21008511 C0.137098039,2.43302128 2.41024314,0.161148936 5.18886275,0.161148936 Z" id="路径" fill="#C1C1C1"></path>
            </g>
            <path d="M11,80.3874483 C16.8507807,86.5375172 26.424412,86.5375172 32.2746057,80.3874483 L38.1623684,74.1988141 C39.3487262,72.95177 40.2944077,71.5436775 41,70.0396349 C35.1131178,64.4686609 25.962431,64.6599443 20.2994952,70.6125594 L11,80.3874483 Z" id="SVGCleanerId_0" fill="#55BD8B"></path>
            <path d="M11,80.3874483 C16.8507807,86.5375172 26.424412,86.5375172 32.2746057,80.3874483 L38.1623684,74.1988141 C39.3487262,72.95177 40.2944077,71.5436775 41,70.0396349 C35.1131178,64.4686609 25.962431,64.6599443 20.2994952,70.6125594 L11,80.3874483 Z" id="SVGCleanerId_0_1_" fill="#91A271"></path>
            <g id="编组" transform="translate(9.000000, 2.000000)">
                <polygon id="路径" fill="#C1C1C1" points="0.192443457 101.305615 63.1193749 101.305615 53.6566807 146.703024 9.65543466 146.703024"></polygon>
                <g transform="translate(43.656154, 0.000000)" fill="#F25C62" id="路径">
                    <path d="M7.92968014,8.08113158 L7.92968014,8.08113158 L24.393693,24.5772692 C34.4194625,34.6229636 34.7404986,50.855751 25.3579892,61.2984049 C22.8253382,60.0471194 20.4533538,58.369415 18.3525128,56.2649939 L7.92968014,45.8211498 C-2.42841072,35.4424737 -2.42841072,18.4598077 7.92968014,8.08113158 Z"></path>
                    <path d="M7.92997712,8.08083401 L7.92997712,8.08083401 L24.393396,24.5775668 C34.4191656,34.6232611 50.6197566,34.9449352 61.0414013,25.5437794 C59.7928947,23.0060951 58.1185178,20.6293968 56.0179737,18.5243806 L45.5951411,8.08083401 C35.2370502,-2.29754453 18.287771,-2.29754453 7.92997712,8.08083401 Z"></path>
                </g>
            </g>
            <g id="编组" fill="#333333">
                <path d="M46.995099,141.415516 L47.1144746,141.415516 C48.7542563,141.415516 50.0834239,140.086406 50.0834239,138.447359 C50.0834239,136.808313 48.7542563,135.479203 47.1144746,135.479203 L46.995099,135.479203 C45.3553173,135.479203 44.0261497,136.808313 44.0261497,138.447359 C44.0261497,140.086703 45.3553173,141.415516 46.995099,141.415516 Z" id="路径"></path>
                <path d="M116.556944,26.8434375 C115.134533,23.959 113.254812,21.3381875 110.970343,19.0543281 L100.548434,8.63520313 C94.978165,3.06671875 87.5448046,0 79.6179061,0 C72.2299797,0 65.2717462,2.66504688 59.8499543,7.53528125 C58.0156675,6.83020313 56.062302,6.46326563 54.0747868,6.46326563 C45.1519036,6.46326563 37.8925584,13.7206719 37.8925584,22.640875 L37.8925584,63.9100625 C35.639566,62.9419531 33.1899898,62.4301406 30.680132,62.4301406 C25.8097843,62.4301406 21.242033,64.3155938 17.8184467,67.7379688 L8.40974619,77.1435625 C7.8526599,77.7005 7.54026396,78.4551563 7.54026396,79.2421719 C7.54026396,80.0291875 7.85325381,80.7841406 8.40974619,81.3407813 C11.8330355,84.7634531 16.4007868,86.6483125 21.2714315,86.6483125 C26.1420761,86.6483125 30.7095305,84.7631563 34.1331168,81.3407813 L37.8925584,77.5823438 L37.8925584,90.7077812 L8.13951777,90.7077812 C3.72677665,90.7077812 0.137192893,94.2967031 0.137192893,98.7079687 C0.137192893,102.721125 3.10851777,106.052656 6.96714213,106.621469 L15.9541675,149.638359 C16.2416193,151.014078 17.4546777,151.999406 18.8604594,151.999406 L62.8575076,151.999406 C64.2632893,151.999406 65.4760508,151.014078 65.7637995,149.638359 L74.7505279,106.621469 C78.6091523,106.052359 81.5804772,102.720828 81.5804772,98.7076719 C81.5804772,94.2964063 77.9905964,90.7077812 73.5781523,90.7077812 L43.8304569,90.7077812 L43.8304569,90.7077812 L43.8304569,22.6405781 C43.8304569,16.9934219 48.4264188,12.3989844 54.0750838,12.3989844 C54.5323934,12.3989844 54.9861396,12.4325313 55.4354315,12.4930938 C47.2760178,24.0367813 48.3587132,40.1576875 58.6876751,50.4838906 L69.1098807,60.9033125 C71.3940533,63.186875 74.015269,65.0660938 76.9004772,66.488125 C77.3191827,66.6944531 77.7678807,66.7945 78.2124213,66.7942031 C79.0346878,66.7942031 79.8427005,66.4530938 80.4199797,65.8121406 C85.4782995,60.1946719 88.1621726,52.9057969 87.9765761,45.2879844 C87.9011497,42.1889063 87.3523782,39.1679063 86.3694594,36.3128594 C89.4479848,37.3718125 92.7186396,37.9254844 96.0789746,37.9254844 C96.0795685,37.9254844 96.0795685,37.9254844 96.0798655,37.9254844 C103.429188,37.9254844 110.461363,35.2390625 115.879888,30.362 C116.868152,29.4728594 117.14432,28.0356875 116.556944,26.8434375 Z M62.6558756,135.479203 L54.4346954,135.479203 C52.7952107,135.479203 51.4657462,136.808313 51.4657462,138.447359 C51.4657462,140.086406 52.7952107,141.415516 54.4346954,141.415516 L61.4157944,141.415516 L60.4447538,146.063984 L21.2729162,146.063984 L13.0511421,106.70875 L68.665934,106.70875 L62.6558756,135.479203 Z M75.6425787,98.7085625 C75.6425787,99.8464844 74.7166751,100.772438 73.5778553,100.772438 L73.5778553,100.772438 L73.5778553,100.772438 L8.13951777,100.772438 L8.13951777,100.772438 L8.13951777,100.772438 C7.00099492,100.772438 6.07509137,99.8464844 6.07509137,98.7082656 C6.07509137,97.5703438 7.00129188,96.6443906 8.13951777,96.6443906 L73.5778553,96.6443906 C74.7163782,96.6443906 75.6425787,97.5706406 75.6425787,98.7085625 Z M35.8913832,71.1888438 L29.9344797,77.1441563 C27.6324898,79.4455313 24.5557462,80.7128906 21.2711345,80.7128906 C19.0089365,80.7128906 16.8450305,80.1117188 14.9653096,78.9850781 L22.0170838,71.9354844 C24.3190736,69.6338125 27.3955203,68.3664531 30.680132,68.3664531 C32.8933325,68.3664531 35.0355609,68.9530781 36.9001371,70.0464688 C36.5892259,70.4463594 36.2524797,70.8275469 35.8913832,71.1888438 Z M77.4854772,60.0290156 C75.9763553,59.087625 74.5774036,57.9752344 73.3082208,56.7063906 L62.8860152,46.2869687 C54.3714442,37.7749688 53.7217081,24.3401875 60.9228503,15.0681875 L75.1496345,29.2911719 C75.1526041,29.2938438 75.1552766,29.2968125 75.1579492,29.2991875 C83.4952386,37.6422656 84.3454188,50.722875 77.4854772,60.0290156 Z M96.0795685,31.9894687 C89.7419695,31.9891719 83.8034772,29.5429219 79.3565863,25.1010781 C79.3539137,25.0984063 79.3512411,25.0954375 79.3488655,25.0930625 C79.3467868,25.0909844 79.3447081,25.0895 79.3426294,25.0874219 L65.116736,10.8647344 C69.2337107,7.668875 74.2846066,5.93660938 79.6176091,5.93660938 C85.9584746,5.93660938 91.9008274,8.38553125 96.3489061,12.8327188 L106.770815,23.2518437 C108.039701,24.5200937 109.151794,25.9177812 110.092843,27.4259062 C106.06347,30.3830781 101.168178,31.9894687 96.0795685,31.9894687 Z" id="形状"></path>
                <path d="M69.1841193,39.9905469 C65.9330635,36.7406563 64.3856345,32.0476563 65.0436853,27.4365938 C65.2753096,25.8135781 64.1477741,24.3105 62.5243249,24.0786406 C60.8996878,23.8464844 59.3973959,24.9746094 59.1654746,26.5973281 C58.2443223,33.0478281 60.4201066,39.6239063 64.9851853,44.1877656 C65.5651371,44.7672656 66.3247462,45.0570156 67.0843553,45.0570156 C67.8442614,45.0570156 68.6041675,44.7669688 69.1835254,44.1877656 C70.3437259,43.0290625 70.3437259,41.1498438 69.1841193,39.9905469 Z" id="路径"></path>
                <path d="M74.9978909,45.8027656 C73.8382843,44.6440625 71.9588604,44.6440625 70.7989569,45.8027656 C69.6396472,46.9617656 69.6396472,48.8412813 70.7989569,50.0005781 L70.8987335,50.1003281 C71.4786853,50.6798281 72.2382944,50.9695781 72.9979036,50.9695781 C73.7575127,50.9695781 74.5174188,50.6795313 75.0970736,50.1003281 C76.2563832,48.9413281 76.2563832,47.0618125 75.0970736,45.9025156 L74.9978909,45.8027656 Z" id="路径"></path>
            </g>
        </g>
        <rect id="矩形" x="0" y="0" width="245" height="245"></rect>
    </g>
</svg>