<?xml version="1.0" standalone="no"?><!DOCTYPE svg PUBLIC "-//W3C//DTD SVG 1.1//EN" "http://www.w3.org/Graphics/SVG/1.1/DTD/svg11.dtd"><svg t="1530759104586" class="icon" style="" viewBox="0 0 1024 1024" version="1.1" xmlns="http://www.w3.org/2000/svg" p-id="35875" xmlns:xlink="http://www.w3.org/1999/xlink" width="64" height="64"><defs><style type="text/css"></style></defs><path d="M728.743 177.402l63.991-81.514c8.023-10.209 22.808-11.991 33.015-3.975 10.218 8.019 11.996 22.8 3.977 33.016l-63.991 81.513a23.471 23.471 0 0 1-18.511 8.995 23.411 23.411 0 0 1-14.504-5.02c-10.217-8.019-11.995-22.799-3.977-33.015M201.74 124.763c-8.019-10.214-6.24-24.995 3.975-33.016 10.219-8.018 24.999-6.241 33.016 3.976l63.994 81.514c8.019 10.214 6.239 24.995-3.973 33.015a23.425 23.425 0 0 1-14.507 5.019c-6.972 0-13.872-3.086-18.51-8.996l-63.995-81.512z m285.301 66.21V87.513C487.041 74.527 497.882 64 510.87 64c12.988 0 23.829 10.528 23.829 23.513v103.46c0 12.987-10.841 23.514-23.829 23.514-12.989 0-23.829-10.529-23.829-23.514m368.385 721.373H168.512l-33.825-416.302H889.25l-33.824 416.302zM164.994 351.67h693.949l25.367 96.716H139.628l25.366-96.716z m773.328 123.033c0-1.808-0.269-3.541-0.654-5.232-0.031-0.121-0.064-0.242-0.093-0.361-0.168-0.685-0.294-1.389-0.52-2.048l-37.197-143.994c-2.699-10.352-12.05-19.055-22.75-19.055h-730.28c-10.7 0-20.051 8.703-22.751 19.055L86.438 468.024c-0.024 0.09-0.034 0.552-0.055 0.643-0.137 0.556-0.238 1.304-0.336 1.87a29.73 29.73 0 0 0-0.153 0.941 24.851 24.851 0 0 0-0.181 2.198c-0.003 0.134-0.024 0.293-0.028 0.427a23.5 23.5 0 0 0 0.067 2.487l37.64 462.899c0.992 12.209 11.187 20.511 23.437 20.511h730.28c12.25 0 22.445-8.297 23.438-20.505l37.533-462.143c0.142-1.048 0.242-1.559 0.242-2.649" p-id="35876" fill="#bfbfbf"></path></svg>