<?xml version="1.0" encoding="UTF-8"?>
<svg width="41px" height="39px" viewBox="0 0 41 39" version="1.1" xmlns="http://www.w3.org/2000/svg" xmlns:xlink="http://www.w3.org/1999/xlink">
    <!-- Generator: Sketch 52.2 (67145) - http://www.bohemiancoding.com/sketch -->
    <title>星形1</title>
    <desc>Created with Sketch.</desc>
    <g id="商城-花加社区" stroke="none" stroke-width="1" fill="none" fill-rule="evenodd">
        <g id="03-关注" transform="translate(-420.000000, -982.000000)" fill="#F0A735" fill-rule="nonzero" stroke="#F0A735" stroke-width="2.2">
            <g id="内容" transform="translate(20.000000, 296.000000)">
                <g id="分组1-">
                    <g id="赞" transform="translate(400.000000, 621.000000)">
                        <path d="M31.9098375,102.474326 L29.9085333,90.7049879 C29.7933795,90.0277875 30.0167082,89.3370773 30.5065362,88.8554867 L38.9913327,80.5133794 L27.2815094,78.7971378 C26.5960413,78.6966727 26.0042284,78.2645961 25.6997405,77.6423045 L20.4700424,66.9542036 L15.2403443,77.6423045 C14.9358564,78.2645961 14.3440436,78.6966727 13.6585755,78.7971378 L1.94875217,80.5133794 L10.4335487,88.8554867 C10.9233767,89.3370773 11.1467054,90.0277875 11.0315515,90.7049879 L9.03024738,102.474326 L19.4862283,96.9297859 C20.1015264,96.603509 20.8385585,96.603509 21.4538566,96.9297859 L31.9098375,102.474326 Z" id="星形1"></path>
                    </g>
                </g>
            </g>
        </g>
        <g id="页面"></g>
        <g id="页面"></g>
    </g>
</svg>