<?xml version="1.0" encoding="UTF-8"?>
<svg width="28px" height="28px" viewBox="0 0 28 28" version="1.1" xmlns="http://www.w3.org/2000/svg" xmlns:xlink="http://www.w3.org/1999/xlink">
    <!-- Generator: Sketch 52.2 (67145) - http://www.bohemiancoding.com/sketch -->
    <title>井</title>
    <desc>Created with Sketch.</desc>
    <defs>
        <polygon id="path-1" points="5.45183782e-17 0 18.3076923 0 18.3076923 19.3846154 5.45183782e-17 19.3846154"></polygon>
    </defs>
    <g id="商城-花加社区" stroke="none" stroke-width="1" fill="none" fill-rule="evenodd">
        <g id="11-发布新动态--选择" transform="translate(-29.000000, -524.000000)">
            <g id="评论" transform="translate(0.000000, 129.000000)">
                <g id="添加主题" transform="translate(29.000000, 372.000000)">
                    <g id="井" transform="translate(0.000000, 23.000000)">
                        <rect id="矩形" fill="#333333" fill-rule="nonzero" x="0" y="0" width="28" height="28" rx="14"></rect>
                        <g id="jinghao-(2)" transform="translate(5.384615, 4.307692)">
                            <mask id="mask-2" fill="white">
                                <use xlink:href="#path-1"></use>
                            </mask>
                            <g id="Clip-2"></g>
                            <path d="M1.53042347,6.72232894 C1.50177669,6.53226846 1.48278262,6.36431359 1.46687839,6.22811912 C1.45097415,6.09192464 1.44778851,5.95573017 1.44778851,5.81635726 C1.44778851,5.37919188 1.5113336,5.08766066 1.63202855,4.95144228 C1.75581333,4.81524781 1.92731082,4.74551356 2.14951504,4.74551356 L5.9501485,4.74551356 L7.19163703,0.00317842871 C7.96316016,0.0570444311 8.47758078,0.161598007 8.74112643,0.313660728 C9.00460022,0.46572345 9.13475628,0.649450968 9.13475628,0.867973917 L9.13475628,1.1563506 L8.14102893,4.74233513 L12.7290898,4.74233513 L14.0118239,0 C14.783347,0.0538660024 15.2976718,0.158419579 15.5612415,0.3104823 C15.8248111,0.462545021 15.9549432,0.646272539 15.9549432,0.864795488 C15.9549432,0.975705922 15.9390389,1.07074811 15.9136975,1.15317217 L14.96112,4.74233513 L18.2251532,4.74233513 C18.2791413,4.90711157 18.3076923,5.06553115 18.3076923,5.21759387 L18.3076923,5.65158083 C18.3076923,6.06346217 18.244243,6.34538641 18.1203624,6.49744913 C17.9965777,6.64951185 17.8250802,6.72232894 17.602876,6.72232894 L14.4245436,6.72232894 L12.9354856,12.2060744 L16.7773646,12.2060744 C16.80273,12.3993133 16.8249097,12.5703271 16.8408139,12.7223898 C16.855784,12.866614 16.8632571,13.0115073 16.8630655,13.1563768 C16.8630655,13.8723836 16.6280469,14.2272205 16.161339,14.2272205 L12.3957236,14.2272205 L10.9922705,19.381437 C10.2207474,19.327571 9.70951239,19.2230174 9.46184702,19.0741092 C9.21418165,18.9220465 9.09039687,18.7383428 9.09039687,18.516522 C9.09039687,18.4088139 9.10304362,18.3232831 9.13166645,18.269441 L10.2048431,14.2303033 L5.57869835,14.2303033 L4.21651488,19.3846154 C3.44499174,19.3307494 2.92113398,19.2261958 2.64484578,19.0772876 C2.36865338,18.9252249 2.23212605,18.7414974 2.23212605,18.5197004 C2.23212605,18.46593 2.23849733,18.4246821 2.25112012,18.3961957 C2.26386267,18.3708161 2.27020999,18.3264615 2.27020999,18.2725955 L3.38781793,14.2334817 L0.0825152026,14.2334817 C0.0285270265,14.0402428 0,13.869229 0,13.7171424 L0,13.2831555 C0,12.871298 0.0635211371,12.5893738 0.187305917,12.4373111 C0.311186506,12.2852244 0.482588186,12.2124073 0.704912166,12.2124073 L3.92760388,12.2124073 L5.37230256,6.72868579 L1.53042347,6.72868579 L1.53042347,6.72232894 Z M6.11527472,12.2060744 L10.7414195,12.2060744 L12.2305734,6.72232894 L7.60442861,6.72232894 L6.11527472,12.2060744 Z" id="Fill-1" fill="#FFFFFF" mask="url(#mask-2)"></path>
                        </g>
                    </g>
                </g>
            </g>
        </g>
        <g id="页面"></g>
        <g id="页面"></g>
    </g>
</svg>